<svg id="Layer_1" data-name="Layer 1" xmlns="http://www.w3.org/2000/svg" viewBox="0 0 933.08 68.42"><defs><style>.cls-1{fill:#003764}</style></defs><title>logos</title><path class="cls-1" d="M27.43 66.2a1.05 1.05 0 0 1 .25-.37 1.18 1.18 0 0 1 .37-.24 1.17 1.17 0 0 1 .9 0 1.31 1.31 0 0 1 .37.24 1.21 1.21 0 0 1 .25.37 1.13 1.13 0 0 1 .09.45 1.19 1.19 0 0 1-.09.47 1.2 1.2 0 0 1-.62.61 1.31 1.31 0 0 1-.9 0 1.05 1.05 0 0 1-.37-.25 1 1 0 0 1-.25-.36 1 1 0 0 1-.1-.47 1 1 0 0 1 .1-.45m.19.85a.79.79 0 0 0 .2.31.9.9 0 0 0 .3.21.94.94 0 0 0 .76 0 1 1 0 0 0 .3-.21 1.1 1.1 0 0 0 .2-.31 1 1 0 0 0 .07-.4 1 1 0 0 0-.07-.39 1.27 1.27 0 0 0-.2-.31 1.21 1.21 0 0 0-.3-.2.94.94 0 0 0-.76 0 1 1 0 0 0-.3.2.87.87 0 0 0-.2.31 1 1 0 0 0-.08.39 1 1 0 0 0 .08.4m.95-1.05a.53.53 0 0 1 .36.1.34.34 0 0 1 .12.29.34.34 0 0 1-.11.27.47.47 0 0 1-.25.1l.39.59h-.23l-.37-.58h-.22v.58h-.21V66zm-.09.6h.25a.27.27 0 0 0 .08-.07.37.37 0 0 0 0-.12.18.18 0 0 0 0-.11.13.13 0 0 0-.07-.06.17.17 0 0 0-.1 0h-.38v.43zm41.73-40.75L64 26c-2.44.08-3.44.29-4.07 1.21a5.14 5.14 0 0 0-.72 1.47c-.08.33-.2.5-.45.5s-.38-.21-.38-.67c0-.67.79-4.48.88-4.82.12-.55.25-.8.5-.8a10.34 10.34 0 0 0 1.8.51c1.22.12 2.81.21 4.2.21h16.6a20.65 20.65 0 0 0 2.89-.21 9.12 9.12 0 0 1 1.14-.21c.29 0 .33.25.33.88 0 .88-.12 3.77-.12 4.86 0 .42-.13.67-.38.67s-.42-.21-.46-.84v-.46c-.09-1.09-1.22-2.26-5-2.35l-5.28-.12V43c0 3.86 0 7.17.2 9 .13 1.18.38 2.1 1.64 2.27a18.56 18.56 0 0 0 2.14.16c.46 0 .67.13.67.34s-.33.42-.8.42c-2.77 0-5.41-.13-6.58-.13-1 0-3.61.13-5.28.13-.55 0-.84-.13-.84-.42s.17-.34.67-.34a7.18 7.18 0 0 0 1.51-.16c.84-.17 1.09-1.09 1.21-2.31.21-1.76.21-5.07.21-8.93zm40.41 13.58a.22.22 0 0 0 .22-.25v-.75c0-5.47 0-6.48-.08-7.63s-.36-1.8-1.54-2.05a7.55 7.55 0 0 0-1.4-.11c-.4 0-.62-.07-.62-.32s.26-.32.76-.32c1.94 0 4.21.1 5.18.1s3.13-.1 4.53-.1c.5 0 .75.07.75.32s-.21.32-.64.32a6.81 6.81 0 0 0-1 .11c-1 .18-1.25.79-1.33 2.05s-.07 2.16-.07 7.63v6.32c0 3.31 0 6.15.18 7.7.11 1 .33 1.8 1.4 1.94a15.76 15.76 0 0 0 1.84.14c.39 0 .57.11.57.29s-.28.36-.72.36c-2.33 0-4.6-.11-5.6-.11-.83 0-3.1.11-4.5.11-.5 0-.76-.11-.76-.36s.15-.29.58-.29a6.12 6.12 0 0 0 1.3-.14c.71-.14.89-.94 1-2 .18-1.51.18-4.35.18-7.66v-3.14a.22.22 0 0 0-.22-.22H96.89a.19.19 0 0 0-.22.22v3.16c0 3.31 0 6.15.18 7.7.11 1 .32 1.8 1.4 1.94a15.76 15.76 0 0 0 1.84.14c.39 0 .57.11.57.29s-.29.36-.72.36c-2.34 0-4.6-.11-5.61-.11-.82 0-3.09.11-4.53.11-.47 0-.72-.11-.72-.36s.15-.29.58-.29a5.94 5.94 0 0 0 1.34-.14c.72-.14.9-.94 1-2 .18-1.51.18-4.35.18-7.66v-6.3c0-5.47 0-6.48-.07-7.63s-.36-1.8-1.54-2.05a7.59 7.59 0 0 0-1.41-.11c-.39 0-.61-.07-.61-.32s.25-.32.76-.32c1.94 0 4.21.1 5.18.1S97.6 28 99 28c.5 0 .75.07.75.32s-.21.32-.64.32a6.69 6.69 0 0 0-1.05.11c-1 .18-1.26.79-1.33 2.05s-.07 2.16-.07 7.63v.75a.22.22 0 0 0 .22.25zm14.71-1.01c0-5.46 0-6.47-.07-7.62s-.36-1.8-1.55-2.05a7.47 7.47 0 0 0-1.4-.11c-.39 0-.61-.07-.61-.32s.25-.32.79-.32h2.91c.91 0 1.77.07 2.27.07h9a13.75 13.75 0 0 0 1.54-.22 4.07 4.07 0 0 1 .58-.14c.18 0 .22.14.22.32a23 23 0 0 0-.29 2.34c0 .36-.11 1.94-.18 2.37 0 .18-.11.4-.36.4s-.33-.18-.33-.51a3.8 3.8 0 0 0-.21-1.29c-.25-.65-.61-1.08-2.41-1.29-.61-.08-4.39-.15-5.1-.15-.18 0-.26.11-.26.36v9.1c0 .25 0 .4.26.4.78 0 4.92 0 5.75-.08a2.48 2.48 0 0 0 1.72-.54c.25-.28.4-.46.58-.46s.25.07.25.28-.14.8-.29 2.63c0 .72-.14 2.16-.14 2.41s0 .68-.33.68a.28.28 0 0 1-.32-.32 8.38 8.38 0 0 0-.14-1.3c-.18-.72-.68-1.26-2-1.4-.68-.07-4.24-.11-5.1-.11-.18 0-.22.15-.22.36v8.42c.08 2.48.65 3 4.32 3a9.18 9.18 0 0 0 3.38-.43c.93-.44 1.36-1.19 1.62-2.67.07-.39.14-.53.39-.53s.29.28.29.64a27.93 27.93 0 0 1-.47 4c-.25.94-.57.94-1.94.94-2.7 0-4.67-.07-6.22-.11s-2.66-.11-3.74-.11h-2c-.81 0-1.76.07-2.48.07-.47 0-.72-.11-.72-.36s.14-.29.57-.29a6 6 0 0 0 1.3-.14c.72-.15.9-.93 1-2 .18-1.51.18-4.35.18-7.66zm30.59-2.76c0-6.38 0-7.55-.08-8.89s-.42-2.1-1.81-2.39a8.78 8.78 0 0 0-1.63-.13c-.46 0-.71-.08-.71-.37s.29-.38.92-.38c2.22 0 4.87.12 6.12.12 1 0 3.65-.12 5.16-.12.63 0 .92.08.92.38s-.25.37-.67.37a6.76 6.76 0 0 0-1.22.13c-1.13.21-1.46.92-1.55 2.39s-.08 2.51-.08 8.89v5.87c0 6.08 1.21 8.64 3.27 10.31a7.71 7.71 0 0 0 5.24 1.72 8.2 8.2 0 0 0 5.79-2.26c2.3-2.3 2.41-6.08 2.41-10.4v-5.24c0-6.38 0-7.55-.08-8.89s-.42-2.1-1.81-2.39a8.41 8.41 0 0 0-1.51-.13c-.46 0-.71-.08-.71-.37s.3-.38.88-.38c2.14 0 4.78.12 4.82.12.51 0 3.15-.12 4.78-.12.59 0 .88.08.88.38s-.25.37-.75.37a6.76 6.76 0 0 0-1.22.13c-1.13.21-1.46.92-1.55 2.39s-.08 2.51-.08 8.89v4.48c0 4.66-.46 9.61-4 12.63a12.53 12.53 0 0 1-8.72 3c-2.22 0-6.25-.13-9.31-2.9-2.13-1.93-3.73-5-3.73-11.11zm35.64 14.63c.07 2.81.53 3.74 1.25 4a5.61 5.61 0 0 0 1.87.25c.4 0 .62.07.62.29s-.33.36-.83.36c-2.34 0-3.78-.11-4.46-.11-.33 0-2 .11-3.88.11-.47 0-.8 0-.8-.36s.22-.29.58-.29a6.1 6.1 0 0 0 1.62-.18c.93-.29 1.08-1.33 1.11-4.45l.36-21.2c0-.71.11-1.22.46-1.22s.72.47 1.33 1.12c.44.46 5.9 6.22 11.15 11.43 2.45 2.45 7.3 7.62 7.91 8.2h.15l-.36-16.14c0-2.2-.36-2.88-1.22-3.24a5.77 5.77 0 0 0-1.91-.22c-.43 0-.57-.11-.57-.32s.39-.32.93-.32c1.87 0 3.6.1 4.35.1.4 0 1.77-.1 3.53-.1.46 0 .82 0 .82.32s-.21.32-.64.32a3.85 3.85 0 0 0-1.08.11c-1 .29-1.3 1-1.33 3.06l-.4 22.69c0 .79-.14 1.11-.47 1.11s-.82-.39-1.22-.79c-2.26-2.16-6.87-6.87-10.61-10.57-3.91-3.88-7.9-8.27-8.55-9h-.11zm30.24-11.87c0-5.46 0-6.47-.07-7.62s-.43-1.83-1.22-2a5.09 5.09 0 0 0-1.3-.15c-.36 0-.57-.07-.57-.36s.28-.28.86-.28c1.37 0 3.63.1 4.67.1s3-.1 4.39-.1c.47 0 .75.07.75.28s-.21.36-.57.36a6.27 6.27 0 0 0-1.08.11c-1 .18-1.26.79-1.33 2.05s-.07 2.16-.07 7.62v6.33c0 3.49 0 6.33.14 7.88.11 1 .36 1.61 1.44 1.76a15.42 15.42 0 0 0 1.83.14c.4 0 .58.11.58.29s-.29.36-.68.36c-2.38 0-4.64-.11-5.61-.11s-3.09.11-4.53.11c-.47 0-.72-.11-.72-.36s.14-.29.57-.29a6.12 6.12 0 0 0 1.3-.14c.72-.15.93-.75 1-1.8.18-1.51.18-4.35.18-7.84zm13.3-6.9c-.82-2-1.43-2.37-2.73-2.73a5.68 5.68 0 0 0-1.4-.14c-.32 0-.43-.12-.43-.33s.39-.32.93-.32c1.91 0 4 .11 5.22.11.9 0 2.62-.11 4.42-.11.43 0 .83.07.83.32s-.22.33-.54.33a2.61 2.61 0 0 0-1.4.24.85.85 0 0 0-.36.76 10.67 10.67 0 0 0 .82 2.77l6.19 16.32h.14c1.55-4 6.22-15.53 7.08-17.9a4.5 4.5 0 0 0 .33-1.33.7.7 0 0 0-.47-.69 4.9 4.9 0 0 0-1.44-.17c-.32 0-.61 0-.61-.29s.33-.36 1-.36c1.8 0 3.31.11 3.77.11.61 0 2.31-.11 3.38-.11.47 0 .76.07.76.32s-.22.33-.58.33a3.19 3.19 0 0 0-1.76.42c-.47.33-1 .94-2 3.24-1.4 3.38-2.37 5.32-4.31 9.75-2.3 5.25-4 9.16-4.78 11-.94 2.09-1.15 2.66-1.66 2.66s-.68-.5-1.36-2.19z"/><path class="cls-1" d="M263.37 38.42c0-5.46 0-6.47-.07-7.62s-.36-1.8-1.55-2.05a7.55 7.55 0 0 0-1.4-.11c-.39 0-.61-.07-.61-.32s.25-.32.79-.32h2.91c.91 0 1.76.07 2.27.07h9a13.75 13.75 0 0 0 1.54-.22 4.07 4.07 0 0 1 .58-.14c.18 0 .21.14.21.32a21.67 21.67 0 0 0-.28 2.34c0 .36-.11 1.94-.18 2.37 0 .18-.11.4-.36.4s-.33-.18-.33-.51a3.8 3.8 0 0 0-.21-1.29c-.25-.65-.61-1.08-2.41-1.29-.61-.08-4.39-.15-5.11-.15-.18 0-.25.11-.25.36v9.1c0 .25 0 .4.25.4.79 0 4.93 0 5.76-.08a2.48 2.48 0 0 0 1.72-.54c.25-.28.4-.46.58-.46s.25.07.25.28-.14.8-.29 2.63c0 .72-.14 2.16-.14 2.41s0 .68-.33.68a.28.28 0 0 1-.32-.32 11.86 11.86 0 0 0-.14-1.3c-.18-.72-.69-1.26-2-1.4-.68-.07-4.24-.11-5.1-.11-.18 0-.22.15-.22.36v8.42c.07 2.48.65 3 4.32 3a9.18 9.18 0 0 0 3.38-.43c.93-.44 1.36-1.19 1.61-2.67.08-.39.15-.53.4-.53s.29.28.29.64a27.93 27.93 0 0 1-.47 4c-.25.94-.58.94-1.94.94-2.7 0-4.68-.07-6.22-.11s-2.66-.11-3.74-.11h-2c-.81 0-1.76.07-2.48.07-.47 0-.72-.11-.72-.36s.14-.29.57-.29a6.12 6.12 0 0 0 1.3-.14c.72-.15.9-.93 1-2 .18-1.51.18-4.35.18-7.66zm20.93 0c0-5.46 0-6.47-.07-7.62s-.36-1.8-1.55-2.05a7.55 7.55 0 0 0-1.4-.11c-.4 0-.61-.07-.61-.32s.25-.32.79-.32c1.91 0 4.17.1 4.93.1 1.22 0 3.95-.1 5.07-.1a11.48 11.48 0 0 1 6.61 1.54 6.24 6.24 0 0 1 2.45 4.93c0 2.66-1.12 5.1-4.75 8.05 3.2 4 5.68 7.23 7.8 9.46a7.19 7.19 0 0 0 4 2.45 5.81 5.81 0 0 0 1 .1c.29 0 .43.11.43.29s-.25.36-.68.36h-3.42a7.39 7.39 0 0 1-3.85-.68c-1.54-.83-2.91-2.52-4.92-5.29-1.44-2-3.09-4.42-3.56-5A.74.74 0 0 0 292 44l-3.13-.07c-.18 0-.29.07-.29.28v.51c0 3.34 0 6.18.18 7.69.11 1 .33 1.84 1.4 2a17.17 17.17 0 0 0 1.77.14c.29 0 .43.11.43.29s-.25.36-.72.36c-2.09 0-4.75-.11-5.29-.11s-2.94.11-4.38.11c-.47 0-.72-.11-.72-.36s.14-.29.57-.29a6.12 6.12 0 0 0 1.3-.14c.72-.14.9-.94 1-2 .18-1.51.18-4.35.18-7.66zm4.24 2.84c0 .4.08.54.33.65a9.49 9.49 0 0 0 2.73.36 3.58 3.58 0 0 0 2.55-.61c1.08-.79 2.13-2.45 2.13-5.39 0-5.11-3.38-6.58-5.51-6.58a7.78 7.78 0 0 0-1.9.14c-.25.07-.33.22-.33.5z"/><path class="cls-1" d="M307 54.75c-.58-.25-.69-.43-.69-1.22 0-2 .15-4.14.18-4.71s.15-.94.43-.94.37.33.37.61a7.66 7.66 0 0 0 .32 1.84 5 5 0 0 0 5.1 3.67c3.24 0 4.82-2.2 4.82-4.1s-.53-3.46-3.53-5.79l-1.66-1.3c-4-3.09-5.32-5.61-5.32-8.52 0-4 3.31-6.8 8.3-6.8a17.57 17.57 0 0 1 4.79.61c.32.08.5.18.5.44 0 .46-.14 1.5-.14 4.31 0 .79-.11 1.08-.4 1.08s-.36-.22-.36-.65a4.37 4.37 0 0 0-.93-2.37 4.55 4.55 0 0 0-3.92-1.76c-2.66 0-4.28 1.54-4.28 3.7 0 1.65.82 2.91 3.81 5.18l1 .75c4.35 3.28 5.89 5.76 5.89 9.17a7.24 7.24 0 0 1-3.38 6.26 10.36 10.36 0 0 1-5.71 1.47 12.48 12.48 0 0 1-5.25-.93m21.13-16.33c0-5.46 0-6.47-.08-7.62s-.43-1.83-1.22-2a5 5 0 0 0-1.29-.15c-.36 0-.58-.07-.58-.36s.29-.28.87-.28c1.36 0 3.63.1 4.67.1s3-.1 4.39-.1c.46 0 .75.07.75.28s-.22.36-.58.36a6.26 6.26 0 0 0-1.07.11c-1 .18-1.26.79-1.34 2.05s-.07 2.16-.07 7.62v6.33c0 3.49 0 6.33.15 7.88.11 1 .36 1.61 1.44 1.76a15.42 15.42 0 0 0 1.83.14c.39 0 .57.11.57.29s-.28.36-.68.36c-2.37 0-4.64-.11-5.61-.11s-3.09.11-4.53.11c-.46 0-.72-.11-.72-.36s.15-.29.58-.29a5.94 5.94 0 0 0 1.29-.14c.72-.15.94-.75 1.05-1.8.18-1.51.18-4.35.18-7.84zM348.74 30l-5.35.15c-2.09.07-2.95.25-3.49 1a4.17 4.17 0 0 0-.61 1.26c-.08.28-.18.43-.4.43s-.32-.18-.32-.58c0-.57.68-3.85.75-4.13.11-.47.22-.69.43-.69a8.32 8.32 0 0 0 1.55.43c1 .11 2.41.18 3.59.18h14.25a16.22 16.22 0 0 0 2.48-.18c.54-.1.82-.18 1-.18s.29.22.29.76c0 .76-.11 3.24-.11 4.17 0 .36-.11.58-.33.58s-.36-.18-.39-.72v-.4c-.07-.93-1-1.94-4.24-2l-4.6-.08v14.75c0 3.31 0 6.15.18 7.7.11 1 .32 1.8 1.4 1.94a15.42 15.42 0 0 0 1.83.14c.4 0 .58.11.58.29s-.29.36-.68.36c-2.38 0-4.64-.11-5.65-.11-.83 0-3.09.11-4.53.11-.47 0-.72-.11-.72-.36s.14-.29.58-.29a5.94 5.94 0 0 0 1.29-.14c.72-.14.93-.94 1-2 .18-1.51.18-4.35.18-7.66zm28.74 15.87a7.64 7.64 0 0 0-.83-3.78c-.25-.57-5.07-8.48-6.33-10.35a8.94 8.94 0 0 0-2.48-2.63 3.71 3.71 0 0 0-1.51-.47c-.29 0-.54-.07-.54-.32s.25-.32.68-.32c.65 0 3.35.1 4.53.1.76 0 2.23-.1 3.85-.1.36 0 .54.1.54.32s-.25.25-.79.4a.65.65 0 0 0-.5.64 3.4 3.4 0 0 0 .43 1.23c.5 1.07 5.53 9.74 6.11 10.75.36-.87 4.89-8.78 5.39-9.89a4.7 4.7 0 0 0 .51-1.87.86.86 0 0 0-.76-.9c-.32-.07-.64-.14-.64-.36s.18-.32.61-.32c1.18 0 2.33.1 3.38.1.79 0 3.16-.1 3.84-.1.4 0 .65.07.65.28s-.29.36-.68.36a3.91 3.91 0 0 0-1.59.44 5.46 5.46 0 0 0-1.94 1.76 114.08 114.08 0 0 0-6.86 11.43 8.62 8.62 0 0 0-.54 3.6v3c0 .57 0 2.08.1 3.59.08 1 .4 1.84 1.48 2a15.41 15.41 0 0 0 1.8.14c.39 0 .57.11.57.29s-.29.36-.75.36c-2.27 0-4.53-.11-5.51-.11s-3.16.11-4.49.11c-.5 0-.79-.07-.79-.36s.18-.29.58-.29a5.84 5.84 0 0 0 1.25-.14c.72-.14 1.05-.94 1.12-2 .11-1.51.11-3 .11-3.59zm23.34-4.28c0-6.15 4.06-14.1 14.85-14.1 8.95 0 14.52 5.22 14.52 13.45s-5.75 14.74-14.88 14.74c-10.32 0-14.49-7.73-14.49-14.09m24.34.68c0-8.05-4.64-13.05-10.54-13.05-4.13 0-8.84 2.3-8.84 11.25 0 7.48 4.13 13.42 11 13.42 2.51 0 8.34-1.23 8.34-11.62m14.96 2.48c0 3.45 0 6.15.18 7.66.11 1 .33 1.84 1.41 2a15.41 15.41 0 0 0 1.79.14c.47 0 .62.11.62.29s-.26.36-.8.36c-2.26 0-4.53-.11-5.46-.11s-3.2.11-4.57.11c-.5 0-.75-.07-.75-.36s.14-.29.54-.29a5.94 5.94 0 0 0 1.29-.14c.72-.14.9-.94 1-2 .19-1.51.19-4.21.19-7.66v-6.33c0-5.46 0-6.47-.08-7.62s-.36-1.8-1.54-2.05a7.59 7.59 0 0 0-1.41-.11c-.35 0-.61-.07-.61-.28s.29-.36.83-.36h2.91c.94 0 1.76.07 2.27.07h9.49a7 7 0 0 0 1.47-.15 2.43 2.43 0 0 1 .58-.21.29.29 0 0 1 .25.32c0 .25-.18.69-.29 1.62 0 .36-.1 2.48-.18 2.91s-.1.51-.36.51-.32-.18-.36-.58a3.57 3.57 0 0 0-.21-1.36 2.57 2.57 0 0 0-2.28-1.08l-5.54-.11c-.22 0-.33.11-.33.5v9c0 .22 0 .33.26.33h6.22a1.88 1.88 0 0 0 1.49-.77c.18-.22.25-.36.47-.36s.22.1.22.32-.18 1.12-.29 2.23c-.07.72-.15 2.37-.15 2.62s0 .69-.35.69-.29-.26-.29-.51a4.11 4.11 0 0 0-.22-1.11 2.13 2.13 0 0 0-1.83-1.3c-.9-.1-4.71-.1-5.32-.1-.18 0-.26.07-.26.32zm29.69-7.25h.23c1.43-1.55 7.55-7.8 8.76-9.22s2.1-2.43 2.1-3.15c0-.46-.17-.75-.59-.83s-.54-.17-.54-.42.21-.38.67-.38c.88 0 3.19.12 4.32.12 1.3 0 3.61-.12 4.9-.12.42 0 .72.08.72.38s-.21.37-.63.37a8.23 8.23 0 0 0-2.43.46 13.52 13.52 0 0 0-4.53 3.15c-1.3 1.26-7.63 7.55-9.06 9 1.51 2 9.73 10.83 11.36 12.38 1.85 1.76 3.74 3.64 6 4.53a7.3 7.3 0 0 0 2.6.62c.29 0 .55.09.55.34s-.21.42-1 .42h-3.65a27.14 27.14 0 0 1-2.89-.09c-2.27-.21-3.4-1.13-5.2-2.72s-10.11-11.32-11-12.54l-.46-.63h-.21V43c0 3.86 0 7.17.13 9 .08 1.18.46 2.1 1.51 2.26a16.34 16.34 0 0 0 2 .17c.34 0 .55.13.55.34s-.34.42-.8.42c-2.35 0-5-.13-6-.13s-3.61.13-5.28.13c-.55 0-.84-.13-.84-.42s.17-.34.67-.34a6.49 6.49 0 0 0 1.51-.17c.84-.16 1-1.08 1.22-2.3.21-1.76.21-5.07.21-8.93v-7.37c0-6.38 0-7.55-.09-8.89s-.42-2.1-1.8-2.39a9 9 0 0 0-1.64-.13c-.46 0-.71-.08-.71-.37s.3-.38.92-.38c2.22 0 4.87.12 5.87.12s3.65-.12 5.08-.12c.58 0 .88.08.88.38s-.25.37-.59.37a6.53 6.53 0 0 0-1.17.13c-1.14.21-1.47.92-1.56 2.39s-.08 2.51-.08 8.89z"/><path class="cls-1" d="M499.42 46c-.18 0-.25.07-.32.29l-1.94 4.93a7 7 0 0 0-.54 2.19c0 .65.32 1.11 1.44 1.11h.53c.43 0 .54.08.54.29s-.21.36-.61.36c-1.15 0-2.7-.11-3.81-.11-.4 0-2.37.11-4.24.11-.47 0-.69-.07-.69-.36s.15-.29.44-.29a9.87 9.87 0 0 0 1.11-.07c1.65-.21 2.34-1.44 3.06-3.23l9-22.3c.43-1 .65-1.44 1-1.44s.54.33.9 1.15c.86 2 6.61 16.36 8.91 21.83 1.37 3.24 2.42 3.74 3.17 3.92a7.71 7.71 0 0 0 1.51.14c.29 0 .47 0 .47.29s-.33.36-1.66.36-3.91 0-6.79-.07c-.65 0-1.08 0-1.08-.29s.14-.29.5-.32a.58.58 0 0 0 .32-.83l-2.87-7.41a.34.34 0 0 0-.36-.25zm7.34-1.8c.18 0 .21-.1.18-.21l-3.24-8.85c0-.14-.07-.32-.18-.32s-.18.18-.22.32L500 44c0 .15 0 .25.14.25z"/><path class="cls-1" d="M524.81 50.29c.07 2.81.54 3.74 1.26 4a5.58 5.58 0 0 0 1.87.25c.39 0 .61.07.61.29s-.33.36-.83.36c-2.34 0-3.77-.11-4.46-.11-.32 0-2 .11-3.88.11-.47 0-.79 0-.79-.36s.21-.29.57-.29a6.1 6.1 0 0 0 1.62-.18c.94-.29 1.08-1.33 1.12-4.45l.32-21.19c0-.71.11-1.22.47-1.22s.72.47 1.33 1.12c.43.46 5.9 6.22 11.14 11.43 2.45 2.45 7.3 7.62 7.92 8.2h.18l-.36-16.15c0-2.2-.36-2.88-1.23-3.24a5.71 5.71 0 0 0-1.9-.22c-.43 0-.58-.11-.58-.32s.4-.32.94-.32c1.87 0 3.59.1 4.35.1.39 0 1.76-.1 3.52-.1.47 0 .83 0 .83.32s-.22.32-.65.32a3.88 3.88 0 0 0-1.08.11c-1 .29-1.29 1-1.33 3.06l-.39 22.69c0 .79-.15 1.11-.47 1.11s-.83-.39-1.22-.79c-2.27-2.16-6.87-6.87-10.61-10.57-3.92-3.88-7.91-8.27-8.56-9h-.11zm26.11 4.46c-.58-.25-.69-.43-.69-1.22 0-2 .15-4.14.18-4.71s.15-.94.44-.94.36.33.36.61a7.66 7.66 0 0 0 .32 1.84 5 5 0 0 0 5.14 3.67c3.24 0 4.82-2.2 4.82-4.1s-.49-3.46-3.49-5.79l-1.66-1.3c-3.95-3.09-5.32-5.61-5.32-8.52 0-4 3.31-6.8 8.31-6.8a17.54 17.54 0 0 1 4.78.61c.32.08.5.18.5.44 0 .46-.14 1.5-.14 4.31 0 .79-.11 1.08-.4 1.08s-.36-.22-.36-.65a4.37 4.37 0 0 0-.93-2.37 4.53 4.53 0 0 0-3.92-1.76c-2.66 0-4.28 1.54-4.28 3.7 0 1.65.83 2.91 3.81 5.18l1 .75c4.35 3.28 5.89 5.76 5.89 9.17a7.23 7.23 0 0 1-3.37 6.26 10.42 10.42 0 0 1-5.72 1.47 12.48 12.48 0 0 1-5.25-.93M574.9 46c-.18 0-.25.07-.32.29l-1.94 4.93a7 7 0 0 0-.54 2.19c0 .65.32 1.11 1.44 1.11h.54c.43 0 .54.08.54.29s-.22.36-.62.36c-1.15 0-2.69-.11-3.81-.11-.39 0-2.37.11-4.24.11-.47 0-.68-.07-.68-.36s.14-.29.43-.29a9.87 9.87 0 0 0 1.11-.07c1.66-.21 2.34-1.44 3.06-3.23l9-22.3c.43-1 .64-1.44 1-1.44s.54.33.9 1.15c.87 2 6.62 16.36 8.92 21.83 1.37 3.24 2.41 3.74 3.16 3.92a7.71 7.71 0 0 0 1.51.14c.29 0 .47 0 .47.29s-.32.36-1.65.36-3.92 0-6.8-.07c-.65 0-1.08 0-1.08-.29s.14-.29.5-.32a.59.59 0 0 0 .33-.83l-2.88-7.41a.34.34 0 0 0-.36-.25zm7.34-1.8c.18 0 .21-.1.18-.21l-3.24-8.85c0-.14-.07-.32-.18-.32s-.18.18-.21.32L575.48 44c0 .15 0 .25.14.25zm14.06 10.55c-.57-.25-.68-.43-.68-1.22 0-2 .14-4.14.18-4.71s.14-.94.43-.94.36.33.36.61a7.66 7.66 0 0 0 .32 1.84 5 5 0 0 0 5.14 3.67c3.24 0 4.82-2.2 4.82-4.1s-.54-3.42-3.52-5.75l-1.65-1.3c-4-3.09-5.33-5.61-5.33-8.52 0-4 3.31-6.8 8.31-6.8a17.41 17.41 0 0 1 4.78.61c.32.08.5.18.5.44 0 .46-.14 1.5-.14 4.31 0 .79-.11 1.08-.4 1.08s-.35-.22-.35-.65a4.32 4.32 0 0 0-.94-2.37 4.53 4.53 0 0 0-3.92-1.76c-2.66 0-4.28 1.54-4.28 3.7 0 1.65.83 2.91 3.81 5.18l1 .75c4.35 3.28 5.9 5.76 5.9 9.17a7.24 7.24 0 0 1-3.38 6.26 10.4 10.4 0 0 1-5.72 1.47 12.54 12.54 0 0 1-5.25-.93m52.6-17.96c.13 0 .25-.08.25-.29v-.88c0-6.37 0-7.55-.08-8.89s-.42-2.1-1.8-2.39a8.16 8.16 0 0 0-1.64-.13c-.46 0-.71-.08-.71-.37s.29-.38.88-.38c2.26 0 4.91.13 6 .13s3.64-.13 5.28-.13c.59 0 .88.08.88.38s-.25.37-.75.37a6.86 6.86 0 0 0-1.22.13c-1.13.21-1.47.92-1.55 2.39s-.09 2.52-.09 8.89V43c0 3.86 0 7.17.21 9 .13 1.18.38 2.1 1.64 2.27a18.56 18.56 0 0 0 2.14.16c.46 0 .67.13.67.34s-.34.42-.84.42c-2.73 0-5.37-.13-6.54-.13-1 0-3.61.13-5.24.13-.59 0-.88-.13-.88-.42s.16-.34.67-.34a7.18 7.18 0 0 0 1.51-.16c.84-.17 1-1.09 1.21-2.31.21-1.76.21-5.07.21-8.93v-3.68a.24.24 0 0 0-.25-.25h-16a.22.22 0 0 0-.25.25V43c0 3.86 0 7.17.21 9 .13 1.18.38 2.1 1.64 2.27a18.39 18.39 0 0 0 2.13.16c.47 0 .68.13.68.34s-.34.42-.84.42c-2.73 0-5.37-.13-6.54-.13-1 0-3.61.13-5.29.13-.54 0-.83-.13-.83-.42s.16-.34.67-.34a7.07 7.07 0 0 0 1.5-.16c.84-.17 1-1.09 1.22-2.31.21-1.76.21-5.07.21-8.93v-7.37c0-6.37 0-7.55-.08-8.89s-.42-2.1-1.81-2.39a8 8 0 0 0-1.63-.13c-.46 0-.72-.08-.72-.37s.3-.38.89-.38c2.26 0 4.9.13 6 .13s3.65-.13 5.29-.13c.59 0 .88.08.88.38s-.25.37-.76.37a6.85 6.85 0 0 0-1.21.13c-1.13.21-1.47.92-1.55 2.39s-.09 2.52-.09 8.89v.88a.25.25 0 0 0 .25.29zm14.5 1.59c0-5.46 0-6.47-.07-7.62s-.36-1.8-1.55-2.05a7.55 7.55 0 0 0-1.4-.11c-.4 0-.61-.07-.61-.32s.25-.32.79-.32h2.91c.91 0 1.76.07 2.27.07h9a13.75 13.75 0 0 0 1.54-.22 4.07 4.07 0 0 1 .58-.14c.18 0 .21.14.21.32a21.67 21.67 0 0 0-.28 2.34c0 .36-.11 1.94-.18 2.37 0 .18-.11.4-.36.4s-.33-.18-.33-.51a3.8 3.8 0 0 0-.21-1.29c-.25-.65-.61-1.08-2.41-1.29-.61-.08-4.39-.15-5.11-.15-.18 0-.25.11-.25.36v9.1c0 .25 0 .4.25.4.79 0 4.93 0 5.76-.08a2.48 2.48 0 0 0 1.72-.54c.25-.28.4-.46.58-.46s.25.07.25.28-.14.8-.29 2.63c0 .72-.14 2.16-.14 2.41s0 .68-.33.68a.28.28 0 0 1-.32-.32 11.86 11.86 0 0 0-.14-1.3c-.18-.72-.69-1.26-2-1.4-.68-.07-4.24-.11-5.1-.11-.18 0-.22.15-.22.36v8.42c.07 2.48.65 3 4.32 3a9.18 9.18 0 0 0 3.38-.43c.93-.44 1.36-1.19 1.61-2.67.07-.39.15-.53.4-.53s.29.28.29.64a27.93 27.93 0 0 1-.47 4c-.25.94-.58.94-1.94.94-2.7 0-4.68-.07-6.22-.11s-2.66-.11-3.74-.11h-2c-.81 0-1.76.07-2.48.07-.47 0-.72-.11-.72-.36s.14-.29.57-.29a6.12 6.12 0 0 0 1.3-.14c.72-.15.9-.93 1-2 .18-1.51.18-4.35.18-7.66z"/><path class="cls-1" d="M685.76 46c-.18 0-.25.07-.33.29l-1.94 4.93a7 7 0 0 0-.54 2.19c0 .65.33 1.11 1.44 1.11h.54c.43 0 .54.08.54.29s-.22.36-.61.36c-1.15 0-2.7-.11-3.81-.11-.4 0-2.37.11-4.24.11-.47 0-.69-.07-.69-.36s.15-.29.43-.29a9.9 9.9 0 0 0 1.12-.07c1.65-.21 2.34-1.44 3.06-3.23l9-22.3c.43-1 .65-1.44 1-1.44s.54.33.89 1.15c.87 2 6.62 16.36 8.92 21.83 1.37 3.24 2.41 3.74 3.17 3.92a7.71 7.71 0 0 0 1.51.14c.29 0 .47 0 .47.29s-.33.36-1.66.36-3.92 0-6.79-.07c-.65 0-1.08 0-1.08-.29s.14-.29.5-.32a.59.59 0 0 0 .32-.83l-2.87-7.41a.34.34 0 0 0-.36-.25zm7.33-1.8c.18 0 .22-.1.18-.21L690 35.15c0-.14-.07-.32-.18-.32s-.18.18-.22.32L686.33 44c0 .15 0 .25.15.25z"/><path class="cls-1" d="M712.19 44.75c0 4.61 0 7.09.76 7.73.61.54 1.54.79 4.35.79 1.9 0 3.31 0 4.2-1a4.55 4.55 0 0 0 .94-2.16c0-.32.11-.54.39-.54s.29.18.29.61a28.16 28.16 0 0 1-.54 4.14c-.21.79-.39 1-2.26 1-2.59 0-4.46-.07-6.08-.11s-2.91-.11-4.39-.11h-2.05c-.87 0-1.76.07-2.48.07-.46 0-.72-.11-.72-.36s.15-.29.58-.29a5.94 5.94 0 0 0 1.29-.14c.72-.14.9-.94 1-2 .18-1.51.18-4.35.18-7.66v-6.3c0-5.46 0-6.47-.08-7.62s-.36-1.8-1.54-2.05a5.47 5.47 0 0 0-1.19-.11c-.39 0-.61-.07-.61-.32s.25-.32.79-.32c1.69 0 4 .1 4.93.1s3.49-.1 4.89-.1c.5 0 .75.07.75.32s-.21.32-.65.32a10 10 0 0 0-1.4.11c-1 .18-1.26.79-1.33 2.05s-.07 2.16-.07 7.62zM730.71 30l-5.36.15c-2.08.07-2.94.25-3.48 1a4.53 4.53 0 0 0-.62 1.26c-.07.28-.18.43-.39.43s-.33-.18-.33-.58c0-.57.69-3.85.76-4.13.11-.47.22-.69.43-.69a8.32 8.32 0 0 0 1.55.43c1 .11 2.41.18 3.59.18h14.24a16.1 16.1 0 0 0 2.48-.18c.54-.1.83-.18 1-.18s.28.22.28.76c0 .76-.1 3.24-.1 4.17 0 .36-.12.58-.33.58s-.36-.18-.39-.72v-.4c-.07-.93-1-1.94-4.24-2l-4.59-.08v14.75c0 3.31 0 6.15.18 7.7.1 1 .32 1.8 1.4 1.94a15.42 15.42 0 0 0 1.83.14c.4 0 .58.11.58.29s-.29.36-.69.36c-2.37 0-4.64-.11-5.64-.11-.83 0-3.09.11-4.53.11-.47 0-.72-.11-.72-.36s.14-.29.57-.29a6 6 0 0 0 1.3-.14c.72-.14.93-.94 1-2 .18-1.51.18-4.35.18-7.66zm37.4 9.43a.22.22 0 0 0 .22-.25v-.75c0-5.47 0-6.48-.08-7.63s-.36-1.8-1.54-2.05a7.55 7.55 0 0 0-1.4-.11c-.4 0-.61-.07-.61-.32s.24-.32.75-.32c1.94 0 4.21.1 5.18.1s3.13-.1 4.53-.1c.5 0 .75.07.75.32s-.21.32-.65.32a6.7 6.7 0 0 0-1 .11c-1 .18-1.26.79-1.33 2.05s-.07 2.16-.07 7.63v6.32c0 3.31 0 6.15.18 7.7.11 1 .32 1.8 1.4 1.94a15.76 15.76 0 0 0 1.83.14c.4 0 .58.11.58.29s-.29.36-.72.36c-2.33 0-4.6-.11-5.61-.11-.82 0-3.09.11-4.49.11-.51 0-.76-.11-.76-.36s.15-.29.58-.29a5.94 5.94 0 0 0 1.29-.14c.72-.14.9-.94 1-2 .18-1.51.18-4.35.18-7.66v-3.14a.22.22 0 0 0-.22-.22h-13.73a.19.19 0 0 0-.21.22v3.16c0 3.31 0 6.15.18 7.7.11 1 .32 1.8 1.4 1.94a15.6 15.6 0 0 0 1.84.14c.39 0 .57.11.57.29s-.29.36-.72.36c-2.34 0-4.6-.11-5.61-.11-.83 0-3.09.11-4.53.11-.47 0-.72-.11-.72-.36s.14-.29.58-.29a5.94 5.94 0 0 0 1.29-.14c.72-.14.9-.94 1-2 .18-1.51.18-4.35.18-7.66v-6.3c0-5.47 0-6.48-.07-7.63s-.36-1.8-1.54-2.05a7.55 7.55 0 0 0-1.4-.11c-.4 0-.62-.07-.62-.32s.25-.32.76-.32c1.94 0 4.2.1 5.18.1s3.12-.1 4.53-.1c.5 0 .75.07.75.32s-.21.32-.65.32a6.7 6.7 0 0 0-1 .11c-1 .18-1.26.79-1.33 2.05s-.07 2.16-.07 7.63v.75c0 .18.11.25.21.25zm22.37 15.27c-.67-.3-.79-.51-.79-1.43 0-2.31.16-4.82.2-5.49s.17-1.09.51-1.09.42.38.42.71a9.34 9.34 0 0 0 .37 2.14 5.79 5.79 0 0 0 6 4.23c3.78 0 5.62-2.56 5.62-4.78 0-2.05-.63-4-4.11-6.71l-1.93-1.51c-4.61-3.6-6.2-6.54-6.2-9.93 0-4.62 3.85-7.93 9.68-7.93a20.46 20.46 0 0 1 5.58.71c.38.09.59.21.59.51 0 .54-.17 1.76-.17 5 0 .92-.13 1.26-.46 1.26s-.42-.25-.42-.76a5.08 5.08 0 0 0-1.09-2.76 5.31 5.31 0 0 0-4.57-2.06c-3.11 0-5 1.8-5 4.32 0 1.93 1 3.39 4.44 6l1.17.88c5.08 3.81 6.88 6.71 6.88 10.69a8.45 8.45 0 0 1-3.94 7.3 12.11 12.11 0 0 1-6.67 1.72 14.62 14.62 0 0 1-6.12-1.09"/><path class="cls-1" d="M818.15 45.87a7.64 7.64 0 0 0-.83-3.78c-.25-.57-5.07-8.48-6.33-10.35a8.94 8.94 0 0 0-2.48-2.63 3.71 3.71 0 0 0-1.51-.47c-.29 0-.54-.07-.54-.32s.25-.32.69-.32c.64 0 3.34.1 4.53.1.75 0 2.23-.1 3.84-.1.36 0 .54.1.54.32s-.25.25-.79.4a.65.65 0 0 0-.5.64 3.4 3.4 0 0 0 .43 1.23c.5 1.07 5.54 9.74 6.11 10.75.36-.87 4.89-8.78 5.4-9.89a4.65 4.65 0 0 0 .5-1.87.85.85 0 0 0-.76-.9c-.32-.07-.64-.14-.64-.36s.18-.32.61-.32c1.19 0 2.33.1 3.38.1.79 0 3.16-.1 3.84-.1.4 0 .65.07.65.28s-.28.36-.68.36a3.87 3.87 0 0 0-1.58.44 5.3 5.3 0 0 0-1.94 1.76 114.2 114.2 0 0 0-6.87 11.43 8.62 8.62 0 0 0-.54 3.6v3c0 .57 0 2.08.11 3.59.07 1 .39 1.84 1.47 2a15.41 15.41 0 0 0 1.8.14c.39 0 .57.11.57.29s-.28.36-.75.36c-2.27 0-4.53-.11-5.5-.11s-3.17.11-4.5.11c-.5 0-.79-.07-.79-.36s.18-.29.58-.29a6 6 0 0 0 1.26-.14c.72-.14 1-.94 1.11-2 .11-1.51.11-3 .11-3.59zm16.29 8.88c-.58-.25-.68-.43-.68-1.22 0-2 .14-4.14.18-4.71s.14-.94.43-.94.36.33.36.61a7.66 7.66 0 0 0 .32 1.84 5 5 0 0 0 5.14 3.67c3.24 0 4.82-2.2 4.82-4.1s-.54-3.42-3.52-5.75l-1.66-1.3c-4-3.09-5.32-5.61-5.32-8.52 0-4 3.31-6.8 8.31-6.8a17.48 17.48 0 0 1 4.78.61c.32.08.5.18.5.44 0 .46-.14 1.5-.14 4.31 0 .79-.11 1.08-.4 1.08s-.36-.22-.36-.65a4.37 4.37 0 0 0-.93-2.37 4.53 4.53 0 0 0-3.92-1.76c-2.66 0-4.28 1.54-4.28 3.7 0 1.65.83 2.91 3.81 5.18l1 .75c4.35 3.28 5.9 5.76 5.9 9.17a7.24 7.24 0 0 1-3.38 6.26 10.4 10.4 0 0 1-5.72 1.47 12.51 12.51 0 0 1-5.25-.93M860.33 30l-5.36.15c-2.08.07-2.94.25-3.48 1a4.53 4.53 0 0 0-.62 1.26c-.07.28-.17.43-.39.43s-.32-.18-.32-.58c0-.57.68-3.85.75-4.13.11-.47.22-.69.43-.69a8.32 8.32 0 0 0 1.55.43c1 .11 2.41.18 3.59.18h14.24a16.1 16.1 0 0 0 2.48-.18c.54-.1.83-.18 1-.18s.28.22.28.76c0 .76-.11 3.24-.11 4.17 0 .36-.1.58-.32.58s-.36-.18-.39-.72v-.4c-.07-.93-1-1.94-4.24-2l-4.59-.08v14.75c0 3.31 0 6.15.18 7.7.1 1 .32 1.8 1.4 1.94a15.42 15.42 0 0 0 1.83.14c.4 0 .58.11.58.29s-.29.36-.69.36c-2.37 0-4.64-.11-5.64-.11-.83 0-3.09.11-4.53.11-.47 0-.72-.11-.72-.36s.14-.29.57-.29a6 6 0 0 0 1.3-.14c.72-.14.93-.94 1-2 .18-1.51.18-4.35.18-7.66zm18.95 8.42c0-5.46 0-6.47-.07-7.62s-.36-1.8-1.55-2.05a7.47 7.47 0 0 0-1.4-.11c-.39 0-.61-.07-.61-.32s.25-.32.79-.32h2.92c.93 0 1.76.07 2.26.07h9a14.41 14.41 0 0 0 1.55-.22 3.65 3.65 0 0 1 .57-.14c.18 0 .22.14.22.32a23 23 0 0 0-.29 2.34c0 .36-.11 1.94-.18 2.37 0 .18-.11.4-.36.4s-.32-.18-.32-.51a3.85 3.85 0 0 0-.22-1.29c-.25-.65-.61-1.08-2.41-1.29-.61-.08-4.38-.15-5.1-.15-.18 0-.26.11-.26.36v9.1c0 .25 0 .4.26.4.79 0 4.92 0 5.75-.08a2.53 2.53 0 0 0 1.73-.54c.25-.28.39-.46.57-.46s.25.07.25.28-.14.8-.29 2.63c0 .72-.14 2.16-.14 2.41s0 .68-.32.68a.29.29 0 0 1-.33-.32 8.38 8.38 0 0 0-.14-1.3c-.18-.72-.68-1.26-2-1.4-.69-.07-4.25-.11-5.11-.11-.18 0-.22.15-.22.36v8.42c.08 2.48.65 3 4.32 3a9.18 9.18 0 0 0 3.38-.43c.93-.44 1.36-1.19 1.62-2.67.07-.39.14-.53.39-.53s.29.28.29.64a27.93 27.93 0 0 1-.47 4c-.25.94-.57.94-1.94.94-2.69 0-4.67-.07-6.22-.11s-2.66-.11-3.74-.11h-2.05c-.86 0-1.76.07-2.48.07-.47 0-.72-.11-.72-.36s.14-.29.57-.29a6 6 0 0 0 1.3-.14c.72-.15.9-.93 1-2 .18-1.51.18-4.35.18-7.66zm22.26-9.99c.11-.61.33-.94.61-.94s.51.18 1 1.12l9.82 20 9.78-20.24c.29-.58.47-.87.79-.87s.54.36.65 1.12l3.27 22c.33 2.27.68 3.31 1.76 3.64a7.37 7.37 0 0 0 2.23.36c.33 0 .58 0 .58.25s-.43.39-.94.39c-.89 0-5.86-.07-7.29-.18-.83-.07-1-.18-1-.39s.15-.29.4-.4.32-.54.18-1.54l-2.16-15.65H921l-7.84 16c-.83 1.69-1 2-1.33 2s-.69-.71-1.26-1.79c-.86-1.66-3.7-7.16-4.14-8.17-.32-.75-2.48-5-3.73-7.69h-.15l-1.87 14a14.78 14.78 0 0 0-.11 1.69c0 .69.47 1 1.08 1.15a6.59 6.59 0 0 0 1.51.18c.29 0 .54.08.54.26s-.32.39-.86.39c-1.51 0-3.13-.11-3.78-.11s-2.41.11-3.56.11c-.36 0-.65-.07-.65-.39s.22-.26.58-.26a5 5 0 0 0 1.08-.1c1-.22 1.29-1.62 1.47-2.85zM4 14.76l.9 12.88c1.39-1.57 8.35-9.64 12.49-17.27C13.25 10.93 8 12.14 4 14.76m17.65 39.17c-4.55 6.88 3.47 13.5 3.47 13.5-1.12-4.76 5.59-12.36 5.59-12.36 3.37-6.34-2.07-12.5-2.07-12.5a55.09 55.09 0 0 1-7 11.36m6.79-33.52c-1 4.09-4.26 8.65-4.26 8.65l-10 14.56c-5 9.44 2.55 14.18 2.55 14.18.05-3.86 11.83-18.61 11.83-18.61 5.87-10.9-.15-18.78-.15-18.78"/><path class="cls-1" d="M48.09 9.31c-7.71-5.1-20-5.46-23.53-5.46A15.29 15.29 0 0 0 22.43.64a11.32 11.32 0 0 1-.27 3.29C7.12 4.58.79 9.43.79 9.43l1.83 2.71c5.74-3.73 14.5-4.7 18.57-4.95-3.39 9.27-12.49 21-12.49 21-7.48 12.49.61 21 .61 21C10.18 41.46 21.5 28.3 21.5 28.3c4-5.77 5.27-10.88 5.29-15.08L43.3 36.77l1.51-22.16c-1-.75-6.49-4.24-18.26-4.67a19.82 19.82 0 0 0-.65-2.82C40.2 7.44 46.12 12 46.12 12z"/></svg>