<svg id="Layer_1" data-name="Layer 1" xmlns="http://www.w3.org/2000/svg" viewBox="0 0 730.12 165.02"><defs><style>.cls-1{fill:#fff}</style></defs><title>logos</title><path class="cls-1" d="M149.32 45.21l-7.86.21c-3.06.11-4.33.37-5.12 1.53a6.35 6.35 0 0 0-.9 1.85c-.1.42-.26.63-.58.63s-.47-.26-.47-.84c0-.85 1-5.65 1.11-6.07.15-.69.31-1 .63-1a11.81 11.81 0 0 0 2.27.63c1.53.16 3.53.26 5.27.26h20.9a24.72 24.72 0 0 0 3.64-.26 11.87 11.87 0 0 1 1.42-.26c.37 0 .43.31.43 1.1 0 1.11-.16 4.75-.16 6.13-.06.52-.16.84-.48.84s-.52-.26-.58-1.06l-.05-.57c-.11-1.38-1.53-2.85-6.23-3l-6.64-.16v21.67c0 4.86 0 9 .26 11.3.16 1.47.47 2.63 2.06 2.84a21.37 21.37 0 0 0 2.69.22c.58 0 .84.15.84.42s-.42.53-1 .53c-3.48 0-6.81-.16-8.28-.16-1.22 0-4.54.16-6.65.16-.69 0-1.06-.16-1.06-.53s.21-.42.85-.42a8.33 8.33 0 0 0 1.9-.22c1.05-.21 1.37-1.37 1.53-2.9.26-2.21.26-6.38.26-11.24zm50.83 17.1c.13 0 .27-.09.27-.32V61c0-6.88 0-8.14-.09-9.59s-.45-2.26-2-2.58a9.26 9.26 0 0 0-1.76-.14c-.5 0-.77-.09-.77-.4s.32-.41 1-.41c2.45 0 5.3.14 6.52.14s3.93-.14 5.7-.14c.63 0 .95.09.95.41s-.27.4-.82.4a8.14 8.14 0 0 0-1.31.14c-1.22.23-1.58 1-1.67 2.58s-.09 2.71-.09 9.59v8c0 4.16 0 7.74.22 9.68.14 1.27.41 2.27 1.77 2.45a19.12 19.12 0 0 0 2.3.18c.5 0 .73.14.73.36s-.36.45-.91.45c-2.94 0-5.79-.13-7.05-.13-1 0-3.89.13-5.66.13-.63 0-.95-.13-.95-.45s.18-.36.72-.36a7.44 7.44 0 0 0 1.63-.18c.91-.18 1.13-1.18 1.32-2.49.22-1.9.22-5.48.22-9.64v-4a.26.26 0 0 0-.27-.27h-17.28a.24.24 0 0 0-.27.27v4c0 4.16 0 7.74.22 9.68.14 1.27.41 2.27 1.77 2.45a19.12 19.12 0 0 0 2.3.18c.5 0 .73.14.73.36s-.36.45-.91.45c-2.94 0-5.79-.13-7.05-.13-1 0-3.9.13-5.7.13-.59 0-.91-.13-.91-.45s.18-.36.72-.36a7.37 7.37 0 0 0 1.63-.18c.91-.18 1.13-1.18 1.31-2.49.23-1.9.23-5.48.23-9.64v-8c0-6.88 0-8.14-.09-9.59s-.45-2.26-1.94-2.58a9.45 9.45 0 0 0-1.77-.14c-.5 0-.77-.09-.77-.4s.32-.41.95-.41c2.44 0 5.3.14 6.52.14s3.93-.14 5.7-.14c.63 0 1 .09 1 .41s-.27.4-.82.4a8.14 8.14 0 0 0-1.31.14c-1.22.23-1.58 1-1.67 2.58s-.09 2.71-.09 9.59v1c0 .23.13.32.27.32zm18.5-1.31c0-6.88 0-8.14-.09-9.59s-.45-2.26-1.95-2.58a9.37 9.37 0 0 0-1.76-.13c-.5 0-.77-.1-.77-.41s.31-.41 1-.41h3.67c1.13 0 2.21.09 2.85.09 1.45 0 10.45 0 11.31-.05a17.9 17.9 0 0 0 1.94-.27 3.89 3.89 0 0 1 .73-.18c.22 0 .27.18.27.41a27.15 27.15 0 0 0-.36 2.94c0 .45-.14 2.44-.23 3 0 .23-.13.5-.45.5s-.41-.23-.41-.63a4.74 4.74 0 0 0-.27-1.63c-.32-.82-.77-1.36-3-1.63-.77-.09-5.52-.18-6.42-.18-.23 0-.32.13-.32.45v11.52c0 .31 0 .5.32.5 1 0 6.19 0 7.23-.1s1.77-.22 2.18-.68.49-.58.72-.58.32.09.32.36-.19 1-.37 3.3c0 .91-.18 2.71-.18 3s0 .86-.4.86a.36.36 0 0 1-.41-.4 13.7 13.7 0 0 0-.18-1.63c-.23-.91-.86-1.59-2.54-1.77-.86-.09-5.34-.13-6.42-.13-.23 0-.27.18-.27.45V76c.09 3.12.81 3.8 5.43 3.8a11.35 11.35 0 0 0 4.25-.55c1.18-.54 1.72-1.49 2-3.35.09-.49.18-.67.49-.67s.37.36.37.81a36.3 36.3 0 0 1-.59 5c-.32 1.18-.73 1.18-2.45 1.18-3.39 0-5.88-.09-7.82-.14s-3.35-.13-4.71-.13h-2.58c-1.09 0-2.21.09-3.12.09-.59 0-.9-.13-.9-.45s.18-.36.72-.36a7.44 7.44 0 0 0 1.63-.18c.9-.18 1.13-1.18 1.31-2.49.23-1.9.23-5.47.23-9.64zm38.48-3.44c0-8 0-9.5-.11-11.19s-.53-2.64-2.27-3a11.44 11.44 0 0 0-2.06-.15c-.58 0-.89-.11-.89-.48s.37-.47 1.16-.47c2.8 0 6.12.15 7.7.15 1.27 0 4.59-.15 6.49-.15.79 0 1.16.1 1.16.47s-.31.48-.84.48a8.33 8.33 0 0 0-1.53.15c-1.43.27-1.85 1.16-2 3-.1 1.69-.1 3.17-.1 11.19v7.38c0 7.65 1.53 10.87 4.12 13a9.76 9.76 0 0 0 6.59 2.16 10.34 10.34 0 0 0 7.28-2.85c2.9-2.91 3.06-7.65 3.06-13.09v-6.6c0-8 0-9.5-.1-11.19s-.53-2.64-2.27-3a10.77 10.77 0 0 0-1.9-.15c-.58 0-.9-.11-.9-.48s.37-.47 1.11-.47c2.69 0 6 .15 6.07.15.63 0 4-.15 6-.15.74 0 1.11.1 1.11.47s-.31.48-.95.48a8.33 8.33 0 0 0-1.53.15c-1.42.27-1.84 1.16-1.95 3-.11 1.69-.11 3.17-.11 11.19v5.64c0 5.86-.58 12.09-5 15.89a15.77 15.77 0 0 1-11 3.8c-2.8 0-7.86-.16-11.72-3.65-2.69-2.42-4.69-6.33-4.69-14zM302 76c.09 3.53.68 4.7 1.58 5a7.23 7.23 0 0 0 2.35.32c.5 0 .77.09.77.36s-.4.45-1 .45c-2.94 0-4.75-.13-5.61-.13-.4 0-2.53.13-4.88.13-.59 0-1 0-1-.45s.27-.36.73-.36a8.06 8.06 0 0 0 2-.23c1.18-.36 1.36-1.67 1.4-5.61l.41-26.65c0-.9.14-1.53.59-1.53s.9.59 1.67 1.4c.55.59 7.42 7.83 14 14.39 3.07 3.07 9.18 9.59 9.95 10.31h.23l-.46-20.31c0-2.76-.45-3.62-1.53-4.07a7.19 7.19 0 0 0-2.4-.28c-.54 0-.72-.13-.72-.4s.49-.41 1.17-.41c2.35 0 4.53.14 5.48.14.49 0 2.21-.14 4.43-.14.59 0 1 0 1 .41s-.27.4-.81.4a4.77 4.77 0 0 0-1.36.14c-1.27.36-1.63 1.31-1.68 3.85l-.49 28.54c0 1-.18 1.41-.59 1.41s-1-.5-1.54-1c-2.85-2.71-8.64-8.64-13.34-13.3-4.94-4.89-10-10.41-10.77-11.26h-.14zm38-15c0-6.88 0-8.14-.09-9.59s-.54-2.31-1.54-2.53a6.15 6.15 0 0 0-1.62-.18c-.46 0-.73-.1-.73-.46s.36-.36 1.08-.36c1.73 0 4.58.14 5.89.14 1.13 0 3.8-.14 5.52-.14.58 0 .95.09.95.36s-.27.46-.73.46a7.57 7.57 0 0 0-1.35.13c-1.23.23-1.59 1-1.68 2.58s-.09 2.71-.09 9.59v8c0 4.39 0 8 .18 9.91.14 1.22.45 2 1.81 2.22a19.29 19.29 0 0 0 2.31.18c.5 0 .72.13.72.36s-.36.45-.86.45c-3 0-5.83-.13-7.05-.13-1 0-3.89.13-5.71.13-.58 0-.9-.13-.9-.45s.18-.36.73-.36a7.34 7.34 0 0 0 1.62-.18c.91-.18 1.18-.95 1.32-2.26.22-1.87.22-5.48.22-9.87zm16.73-8.65c-1-2.48-1.81-3-3.44-3.43a7 7 0 0 0-1.76-.18c-.41 0-.55-.14-.55-.41s.5-.41 1.18-.41c2.4 0 5 .14 6.56.14 1.13 0 3.3-.14 5.56-.14.55 0 1 .09 1 .41s-.27.41-.67.41a3.27 3.27 0 0 0-1.77.31 1.07 1.07 0 0 0-.45 1 13.63 13.63 0 0 0 1 3.49L371.25 74h.18c1.95-5 7.83-19.54 8.91-22.53a5.38 5.38 0 0 0 .41-1.67.87.87 0 0 0-.59-.86 6 6 0 0 0-1.81-.22c-.4 0-.77-.05-.77-.37s.41-.45 1.27-.45c2.26 0 4.16.14 4.75.14.77 0 2.9-.14 4.25-.14.59 0 .95.09.95.41s-.27.41-.72.41a4 4 0 0 0-2.22.54c-.59.4-1.26 1.17-2.48 4.07-1.77 4.25-3 6.69-5.43 12.26-2.9 6.61-5 11.54-6 13.8-1.18 2.62-1.45 3.35-2.08 3.35s-.86-.64-1.72-2.76z"/><path class="cls-1" d="M392.28 61c0-6.88 0-8.14-.09-9.59s-.45-2.26-1.94-2.58a9.49 9.49 0 0 0-1.77-.13c-.49 0-.76-.1-.76-.41s.31-.41 1-.41h3.66c1.13 0 2.22.09 2.85.09 1.45 0 10.46 0 11.31-.05a18.18 18.18 0 0 0 2-.27 4 4 0 0 1 .72-.18c.23 0 .28.18.28.41a28.49 28.49 0 0 0-.37 2.94c0 .45-.13 2.44-.22 3-.05.23-.14.5-.46.5s-.4-.23-.4-.63a5 5 0 0 0-.27-1.63c-.32-.82-.77-1.36-3-1.63-.76-.09-5.51-.18-6.42-.18-.23 0-.31.13-.31.45v11.52c0 .31 0 .5.31.5 1 0 6.2 0 7.24-.1s1.76-.22 2.17-.68.5-.58.72-.58.32.09.32.36-.18 1-.36 3.3c-.05.91-.18 2.71-.18 3s0 .86-.41.86a.36.36 0 0 1-.41-.4 10.5 10.5 0 0 0-.18-1.63c-.22-.91-.86-1.59-2.53-1.77-.86-.09-5.34-.13-6.42-.13-.23 0-.27.18-.27.45V69c0 1.54-.05 5.7 0 7 .08 3.12.81 3.8 5.42 3.8a11.38 11.38 0 0 0 4.26-.55c1.17-.54 1.71-1.49 2-3.35.09-.49.18-.67.5-.67s.36.36.36.81a34.83 34.83 0 0 1-.59 5c-.31 1.18-.72 1.18-2.44 1.18-3.39 0-5.88-.09-7.83-.14S396.36 82 395 82h-2.58c-1.09 0-2.22.09-3.12.09-.59 0-.91-.13-.91-.45s.18-.36.73-.36a7.34 7.34 0 0 0 1.62-.18c.91-.18 1.14-1.18 1.32-2.49.22-1.9.22-5.47.22-9.64zm26.33 0c0-6.88 0-8.14-.09-9.59s-.45-2.26-1.95-2.58a9.37 9.37 0 0 0-1.76-.13c-.5 0-.77-.1-.77-.41s.32-.41 1-.41c2.39 0 5.24.14 6.19.14 1.54 0 5-.14 6.38-.14 2.85 0 5.89.27 8.33 1.94a7.85 7.85 0 0 1 3.07 6.2c0 3.35-1.4 6.43-6 10.14 4 5.06 7.15 9.09 9.82 11.9 2.53 2.62 4.39 2.94 5.07 3.07a7.1 7.1 0 0 0 1.26.14c.36 0 .55.13.55.36s-.32.45-.86.45h-4.3c-2.53 0-3.66-.23-4.84-.86-1.95-1-3.67-3.16-6.2-6.65-1.81-2.48-3.89-5.56-4.48-6.24a.94.94 0 0 0-.81-.32l-3.91-.01c-.23 0-.36.09-.36.36V69c0 4.2 0 7.78.22 9.68.14 1.31.41 2.31 1.77 2.49a20.85 20.85 0 0 0 2.22.18c.36 0 .54.13.54.36s-.32.45-.9.45c-2.63 0-6-.13-6.66-.13-.86 0-3.71.13-5.51.13-.59 0-.91-.13-.91-.45s.18-.36.72-.36a7.37 7.37 0 0 0 1.63-.18c.91-.18 1.13-1.18 1.31-2.49.23-1.9.23-5.48.23-9.64zm5.39 3.61c0 .5.09.68.41.82a11.79 11.79 0 0 0 3.44.45c1.81 0 2.39-.18 3.2-.77 1.36-1 2.68-3.07 2.68-6.78 0-6.43-4.26-8.28-6.93-8.28a9.64 9.64 0 0 0-2.39.18c-.32.09-.41.27-.41.63z"/><path class="cls-1" d="M447.11 81.58c-.73-.32-.86-.54-.86-1.54 0-2.49.18-5.2.22-5.92s.18-1.18.55-1.18.45.41.45.77a9.4 9.4 0 0 0 .41 2.31c1 3.34 3.66 4.56 6.46 4.56 4.08 0 6.07-2.75 6.07-5.15 0-2.22-.68-4.3-4.44-7.24l-2.08-1.63c-5-3.89-6.69-7.06-6.69-10.72 0-5 4.16-8.55 10.45-8.55a21.66 21.66 0 0 1 6 .77c.41.09.64.22.64.54 0 .59-.18 1.9-.18 5.43 0 1-.14 1.36-.5 1.36s-.45-.28-.45-.82a5.46 5.46 0 0 0-1.18-3 5.73 5.73 0 0 0-4.93-2.22c-3.35 0-5.38 1.94-5.38 4.66 0 2.08 1 3.66 4.79 6.51l1.27 1c5.47 4.12 7.42 7.24 7.42 11.54a9.13 9.13 0 0 1-4.26 7.87 13 13 0 0 1-7.19 1.86 15.64 15.64 0 0 1-6.6-1.18M473.66 61c0-6.88 0-8.14-.09-9.59s-.57-2.27-1.57-2.49a6.22 6.22 0 0 0-1.63-.18c-.45 0-.72-.1-.72-.46s.36-.36 1.08-.36c1.72 0 4.57.14 5.89.14 1.13 0 3.79-.14 5.51-.14.59 0 .95.09.95.36s-.27.46-.72.46a7.57 7.57 0 0 0-1.35.13c-1.23.23-1.59 1-1.68 2.58s-.09 2.71-.09 9.59v8c0 4.39 0 8 .18 9.91.14 1.22.45 2 1.81 2.22a19.13 19.13 0 0 0 2.31.18c.5 0 .72.13.72.36s-.36.45-.86.45c-3 0-5.83-.13-7.06-.13-1 0-3.89.13-5.7.13-.58 0-.9-.13-.9-.45s.18-.36.72-.36a7.44 7.44 0 0 0 1.63-.18c.91-.18 1.18-.95 1.31-2.26.23-1.9.23-5.48.23-9.87zm26.01-10.55l-6.74.19c-2.62.09-3.71.31-4.39 1.31a5.45 5.45 0 0 0-.77 1.58c-.09.36-.22.54-.49.54s-.41-.22-.41-.72c0-.72.86-4.84.95-5.2.13-.59.27-.86.54-.86a10.59 10.59 0 0 0 1.95.54c1.31.14 3 .23 4.52.23h17.92a21.7 21.7 0 0 0 3.12-.23 10.32 10.32 0 0 1 1.22-.23c.32 0 .36.28.36.95 0 1-.13 4.08-.13 5.25-.05.45-.14.73-.41.73s-.45-.23-.5-.91v-.49c-.09-1.18-1.32-2.45-5.34-2.54l-5.7-.14V69c0 4.17 0 7.74.22 9.68.14 1.27.41 2.27 1.77 2.45a19 19 0 0 0 2.31.18c.49 0 .72.13.72.36s-.37.45-.86.45c-3 0-5.84-.13-7.1-.13-1 0-3.9.13-5.7.13-.59 0-.91-.13-.91-.45s.18-.36.72-.36a7.37 7.37 0 0 0 1.63-.18c.91-.18 1.18-1.18 1.32-2.49.22-1.9.22-5.47.22-9.64zm36.14 19.96a9.55 9.55 0 0 0-1-4.75c-.31-.73-6.38-10.68-8-13a11 11 0 0 0-3.12-3.31 4.71 4.71 0 0 0-1.9-.58c-.36 0-.68-.1-.68-.41s.32-.41.86-.41c.82 0 4.21.14 5.7.14 1 0 2.81-.14 4.84-.14.45 0 .68.14.68.41s-.32.31-1 .5a.82.82 0 0 0-.63.81 4.35 4.35 0 0 0 .54 1.54c.64 1.35 7 12.26 7.7 13.53.45-1.09 6.15-11 6.78-12.45a5.88 5.88 0 0 0 .63-2.35 1.08 1.08 0 0 0-.94-1.13c-.41-.09-.82-.18-.82-.45s.22-.41.77-.41c1.49 0 2.94.14 4.25.14 1 0 4-.14 4.84-.14.5 0 .82.09.82.36s-.37.46-.86.46a4.92 4.92 0 0 0-2 .54 6.74 6.74 0 0 0-2.45 2.21 146.53 146.53 0 0 0-8.64 14.39 11 11 0 0 0-.67 4.53v3.71c0 .72 0 2.62.13 4.52.09 1.31.5 2.31 1.86 2.49a19 19 0 0 0 2.26.18c.5 0 .72.13.72.36s-.36.45-1 .45c-2.85 0-5.7-.13-6.92-.13s-4 .13-5.66.13c-.63 0-1-.09-1-.45s.22-.36.72-.36a7.35 7.35 0 0 0 1.59-.18c.9-.18 1.31-1.18 1.4-2.49.13-1.9.13-3.8.13-4.52zM565.17 65c0-7.73 5.11-17.73 18.68-17.73 11.27 0 18.28 6.56 18.28 16.92s-7.24 18.55-18.73 18.55c-13 0-18.23-9.73-18.23-17.74m30.63.86c0-10.13-5.84-16.42-13.26-16.42-5.2 0-11.13 2.89-11.13 14.16 0 9.41 5.21 16.87 13.89 16.87 3.17 0 10.5-1.53 10.5-14.61M614.57 69c0 4.35 0 7.74.22 9.64.14 1.31.41 2.31 1.77 2.49a19.11 19.11 0 0 0 2.26.18c.59 0 .77.13.77.36s-.32.45-1 .45c-2.85 0-5.7-.13-6.87-.13s-4 .13-5.75.13c-.63 0-1-.09-1-.45s.18-.36.68-.36a7.44 7.44 0 0 0 1.63-.18c.9-.18 1.13-1.18 1.31-2.49.23-1.9.23-5.29.23-9.64v-8c0-6.88 0-8.14-.09-9.59s-.46-2.26-1.95-2.58a9.37 9.37 0 0 0-1.76-.13c-.45 0-.77-.09-.77-.37s.36-.45 1-.45h3.66c1.18 0 2.22.09 2.85.09 1.72 0 10.91 0 11.95-.05a8.08 8.08 0 0 0 1.85-.18 3 3 0 0 1 .72-.27.37.37 0 0 1 .32.41c0 .31-.22.85-.36 2-.05.45-.13 3.12-.23 3.67 0 .36-.13.63-.45.63s-.4-.23-.45-.72a4.43 4.43 0 0 0-.27-1.72c-.32-.64-1.27-1.32-3-1.36l-7-.14c-.27 0-.4.14-.4.64v11.43c0 .27 0 .4.31.4h5.79c.77 0 1.41 0 2-.05a2.36 2.36 0 0 0 1.95-.81c.22-.27.31-.45.59-.45s.26.13.26.4-.22 1.41-.36 2.81c-.09.9-.18 3-.18 3.3s0 .86-.45.86c-.27 0-.36-.32-.36-.63a5 5 0 0 0-.27-1.4 2.66 2.66 0 0 0-2.31-1.63c-1.13-.14-5.93-.14-6.7-.14-.22 0-.31.09-.31.41zm-465.83 40h.26c1.8-2 9.5-9.81 11-11.6s2.64-3.06 2.64-4c0-.58-.21-1-.74-1.06s-.68-.21-.68-.53.26-.47.84-.47c1.11 0 4 .16 5.43.16 1.64 0 4.54-.16 6.18-.16.52 0 .89.11.89.47s-.26.48-.79.48a10.31 10.31 0 0 0-3.06.58 17 17 0 0 0-5.7 4c-1.63 1.58-9.6 9.49-11.39 11.39 1.9 2.48 12.24 13.62 14.3 15.57 2.32 2.22 4.69 4.59 7.54 5.7a9.22 9.22 0 0 0 3.27.79c.37 0 .69.11.69.42s-.27.53-1.27.53h-4.59a35.3 35.3 0 0 1-3.64-.11c-2.85-.26-4.27-1.42-6.54-3.43s-12.69-14.23-13.8-15.73l-.58-.79h-.26V116c0 4.85 0 9 .16 11.29.1 1.48.58 2.64 1.9 2.85a23.57 23.57 0 0 0 2.58.21c.42 0 .69.16.69.42s-.42.53-1 .53c-3 0-6.28-.16-7.6-.16s-4.54.16-6.65.16c-.69 0-1.06-.16-1.06-.53s.22-.42.85-.42a9 9 0 0 0 1.9-.21c1.05-.21 1.32-1.37 1.53-2.9.26-2.22.26-6.39.26-11.24v-9.29c0-8 0-9.49-.1-11.18s-.53-2.64-2.27-3a10.48 10.48 0 0 0-2.06-.16c-.58 0-.9-.1-.9-.48s.37-.47 1.16-.47c2.8 0 6.12.16 7.39.16s4.59-.16 6.38-.16c.74 0 1.11.11 1.11.47s-.31.48-.73.48a7.49 7.49 0 0 0-1.48.16c-1.43.26-1.85 1.16-2 3-.11 1.69-.11 3.16-.11 11.18z"/><path class="cls-1" d="M186 119.72c-.22 0-.31.09-.41.36l-2.44 6.2a8.87 8.87 0 0 0-.68 2.76c0 .82.41 1.4 1.81 1.4h.72c.54 0 .68.09.68.36s-.27.46-.77.46c-1.45 0-3.39-.14-4.8-.14-.49 0-3 .14-5.33.14-.59 0-.86-.09-.86-.46s.18-.36.54-.36a12.36 12.36 0 0 0 1.4-.09c2.08-.27 2.94-1.81 3.85-4.07l11.35-28c.55-1.31.82-1.81 1.27-1.81s.68.41 1.13 1.45c1.09 2.49 8.32 20.58 11.22 27.46 1.72 4.07 3 4.71 4 4.93a9.61 9.61 0 0 0 1.9.18c.36 0 .59.05.59.36s-.41.46-2.08.46-4.93 0-8.55-.09c-.82 0-1.36 0-1.36-.37s.18-.36.63-.4a.73.73 0 0 0 .41-1l-3.65-9.45a.43.43 0 0 0-.45-.32zm9.23-2.26c.23 0 .27-.14.23-.27l-4.07-11.13c0-.18-.1-.41-.23-.41s-.23.23-.27.41l-4.16 11.08c0 .18 0 .32.18.32z"/><path class="cls-1" d="M218 125.1c.09 3.53.68 4.71 1.58 5a7.22 7.22 0 0 0 2.35.31c.5 0 .77.09.77.36s-.4.46-1 .46c-2.94 0-4.75-.14-5.61-.14-.41 0-2.53.14-4.88.14-.59 0-1 0-1-.46s.27-.36.72-.36a8.06 8.06 0 0 0 2-.22c1.18-.37 1.36-1.68 1.4-5.61l.38-26.58c0-.91.14-1.54.59-1.54s.9.59 1.67 1.4c.54.59 7.42 7.83 14 14.39 3.07 3.08 9.18 9.59 9.95 10.32h.23l-.46-20.32c0-2.76-.45-3.62-1.53-4.07a7.45 7.45 0 0 0-2.4-.27c-.55 0-.73-.14-.73-.41s.5-.41 1.18-.41c2.35 0 4.52.14 5.47.14.5 0 2.22-.14 4.44-.14.58 0 1 0 1 .41s-.27.41-.81.41A4.77 4.77 0 0 0 246 98c-1.27.36-1.63 1.31-1.68 3.84l-.49 28.55c0 1-.19 1.4-.59 1.4s-1-.5-1.54-1c-2.85-2.71-8.64-8.64-13.35-13.3-4.93-4.88-10-10.4-10.76-11.26h-.14zm32.81 5.61c-.73-.31-.86-.54-.86-1.53 0-2.49.18-5.21.22-5.93s.19-1.18.55-1.18.45.41.45.77a9.4 9.4 0 0 0 .41 2.31c1 3.35 3.66 4.57 6.47 4.57 4.07 0 6.06-2.76 6.06-5.16 0-2.22-.68-4.3-4.44-7.24l-2.08-1.63c-5-3.89-6.69-7-6.69-10.72 0-5 4.16-8.55 10.45-8.55a21.81 21.81 0 0 1 6 .77c.4.09.63.23.63.54 0 .59-.18 1.9-.18 5.43 0 1-.14 1.36-.5 1.36s-.45-.27-.45-.82a5.51 5.51 0 0 0-1.18-3 5.73 5.73 0 0 0-4.93-2.22c-3.35 0-5.38 2-5.38 4.66 0 2.08 1 3.67 4.79 6.52l1.27.95c5.47 4.11 7.42 7.23 7.42 11.53a9.14 9.14 0 0 1-4.25 7.88 13.17 13.17 0 0 1-7.2 1.85 15.64 15.64 0 0 1-6.6-1.18M281 119.72c-.23 0-.32.09-.41.36l-2.44 6.2a8.87 8.87 0 0 0-.68 2.76c0 .82.41 1.4 1.81 1.4h.68c.54 0 .68.09.68.36s-.27.46-.77.46c-1.45 0-3.39-.14-4.8-.14-.49 0-3 .14-5.33.14-.59 0-.87-.09-.87-.46s.19-.36.55-.36a12.51 12.51 0 0 0 1.4-.09c2.08-.27 2.94-1.81 3.85-4.07l11.35-28c.54-1.31.82-1.81 1.27-1.81s.68.41 1.13 1.45c1.08 2.49 8.32 20.58 11.22 27.46 1.72 4.07 3 4.71 4 4.93a9.61 9.61 0 0 0 1.9.18c.36 0 .59.05.59.36s-.41.46-2.08.46-4.93 0-8.55-.09c-.82 0-1.36 0-1.36-.37s.18-.36.63-.4a.73.73 0 0 0 .41-1l-3.66-9.45a.44.44 0 0 0-.45-.32zm9.23-2.26c.23 0 .27-.14.23-.27l-4.08-11.13c0-.18-.09-.41-.22-.41s-.23.23-.27.41l-4.17 11.08c0 .18 0 .32.19.32zm17.67 13.25c-.73-.31-.87-.54-.87-1.53 0-2.49.19-5.21.23-5.93s.18-1.18.55-1.18.45.41.45.77a9.84 9.84 0 0 0 .4 2.31c1 3.35 3.67 4.57 6.47 4.57 4.08 0 6.07-2.76 6.07-5.16 0-2.22-.68-4.3-4.44-7.24l-2.08-1.63c-5-3.89-6.7-7-6.7-10.72 0-5 4.17-8.55 10.46-8.55a21.66 21.66 0 0 1 6 .77c.41.09.64.23.64.54 0 .59-.18 1.9-.18 5.43 0 1-.14 1.36-.5 1.36s-.46-.27-.46-.82a5.47 5.47 0 0 0-1.17-3 5.73 5.73 0 0 0-4.93-2.22c-3.35 0-5.39 2-5.39 4.66 0 2.08 1.05 3.67 4.8 6.52l1.27.95c5.47 4.11 7.42 7.23 7.42 11.53a9.13 9.13 0 0 1-4.26 7.88 13.11 13.11 0 0 1-7.19 1.85 15.64 15.64 0 0 1-6.6-1.18m66.17-22.52c.16 0 .31-.11.31-.37v-1.11c0-8 0-9.49-.1-11.18s-.53-2.64-2.27-3a10.48 10.48 0 0 0-2.06-.16c-.58 0-.9-.1-.9-.48s.37-.47 1.11-.47c2.85 0 6.18.16 7.6.16 1.27 0 4.59-.16 6.65-.16.74 0 1.11.11 1.11.47s-.32.48-.95.48a8.83 8.83 0 0 0-1.53.16c-1.43.26-1.85 1.16-1.95 3-.11 1.69-.11 3.16-.11 11.18V116c0 4.85 0 9 .26 11.29.16 1.48.48 2.64 2.06 2.85a23.44 23.44 0 0 0 2.69.21c.58 0 .85.16.85.42s-.43.53-1.06.53c-3.43 0-6.75-.16-8.23-.16-1.21 0-4.54.16-6.6.16-.73 0-1.11-.16-1.11-.53s.22-.42.85-.42a9 9 0 0 0 1.9-.21c1.05-.21 1.32-1.37 1.53-2.9.26-2.22.26-6.39.26-11.24v-4.65a.29.29 0 0 0-.31-.31H353.9c-.16 0-.32 0-.32.31V116c0 4.85 0 9 .27 11.29.16 1.48.47 2.64 2.06 2.85a23.27 23.27 0 0 0 2.69.21c.58 0 .84.16.84.42s-.42.53-1.05.53c-3.43 0-6.76-.16-8.24-.16-1.21 0-4.53.16-6.64.16-.69 0-1.06-.16-1.06-.53s.21-.42.85-.42a9 9 0 0 0 1.9-.21c1.05-.21 1.31-1.37 1.52-2.9.27-2.22.27-6.39.27-11.24v-9.29c0-8 0-9.49-.11-11.18s-.53-2.64-2.27-3a10.36 10.36 0 0 0-2.05-.16c-.58 0-.9-.1-.9-.48s.37-.47 1.11-.47c2.85 0 6.17.16 7.6.16 1.26 0 4.59-.16 6.64-.16.74 0 1.11.11 1.11.47s-.31.48-.95.48a8.92 8.92 0 0 0-1.53.16c-1.42.26-1.84 1.16-1.95 3-.11 1.69-.11 3.16-.11 11.18v1.11a.32.32 0 0 0 .32.37zm18.22 2c0-6.87 0-8.14-.09-9.59s-.45-2.26-1.94-2.57a8.6 8.6 0 0 0-1.77-.14c-.49 0-.76-.09-.76-.41s.31-.4 1-.4h3.66c1.13 0 2.22.09 2.85.09h11.31a17.57 17.57 0 0 0 2-.28 5.05 5.05 0 0 1 .72-.18c.23 0 .28.18.28.41a29 29 0 0 0-.37 2.94c0 .45-.13 2.44-.22 3-.05.22-.14.49-.46.49s-.4-.22-.4-.63a5 5 0 0 0-.27-1.63c-.32-.81-.77-1.35-3-1.63-.76-.09-5.51-.18-6.42-.18-.23 0-.31.14-.31.46v11.44c0 .32 0 .5.31.5 1 0 6.2 0 7.24-.09a3.18 3.18 0 0 0 2.17-.68c.32-.36.5-.59.72-.59s.32.09.32.36-.18 1-.36 3.3c-.05.91-.18 2.72-.18 3s0 .86-.41.86a.36.36 0 0 1-.41-.41 10.63 10.63 0 0 0-.18-1.63c-.22-.9-.86-1.58-2.53-1.76-.86-.1-5.34-.14-6.42-.14-.23 0-.27.18-.27.45v3.58c0 1.54-.05 5.7 0 7 .08 3.12.81 3.8 5.42 3.8a11.57 11.57 0 0 0 4.26-.54c1.17-.55 1.71-1.5 2-3.35.09-.5.18-.68.5-.68s.36.36.36.81a35 35 0 0 1-.59 5c-.31 1.17-.72 1.17-2.44 1.17-3.39 0-5.88-.09-7.83-.13s-3.34-.14-4.7-.14h-2.58c-1.09 0-2.22.09-3.12.09-.59 0-.91-.14-.91-.46s.18-.36.73-.36a7.34 7.34 0 0 0 1.62-.18c.91-.18 1.14-1.17 1.32-2.49.22-1.9.22-5.47.22-9.63z"/><path class="cls-1" d="M420.42 119.72c-.23 0-.32.09-.41.36l-2.44 6.2a8.87 8.87 0 0 0-.68 2.76c0 .82.41 1.4 1.81 1.4h.68c.54 0 .68.09.68.36s-.27.46-.77.46c-1.45 0-3.39-.14-4.8-.14-.49 0-3 .14-5.33.14-.59 0-.86-.09-.86-.46s.18-.36.54-.36a12.36 12.36 0 0 0 1.4-.09c2.08-.27 2.94-1.81 3.85-4.07l11.35-28c.54-1.31.82-1.81 1.27-1.81s.68.41 1.13 1.45c1.08 2.49 8.33 20.58 11.22 27.46 1.72 4.07 3 4.71 4 4.93a9.61 9.61 0 0 0 1.9.18c.36 0 .59.05.59.36s-.41.46-2.08.46-4.93 0-8.55-.09c-.82 0-1.36 0-1.36-.37s.18-.36.63-.4a.73.73 0 0 0 .41-1L431 120a.44.44 0 0 0-.45-.32zm9.23-2.26c.23 0 .27-.14.23-.27l-4.07-11.13c-.05-.18-.1-.41-.23-.41s-.23.23-.27.41l-4.17 11.08c0 .18 0 .32.18.32z"/><path class="cls-1" d="M453.67 118.14c0 5.79 0 8.91.95 9.72.77.68 1.95 1 5.47 1 2.4 0 4.17-.05 5.3-1.27a5.64 5.64 0 0 0 1.17-2.71c.05-.41.14-.68.5-.68s.36.23.36.77a34.54 34.54 0 0 1-.68 5.2c-.27 1-.49 1.22-2.85 1.22-3.25 0-5.61-.09-7.64-.13s-3.67-.14-5.52-.14h-2.58c-1.08 0-2.22.09-3.12.09-.59 0-.91-.14-.91-.46s.18-.36.73-.36a7.44 7.44 0 0 0 1.63-.18c.9-.18 1.13-1.18 1.31-2.49.22-1.9.22-5.47.22-9.63v-8c0-6.87 0-8.14-.09-9.59s-.45-2.18-1.92-2.5a7.52 7.52 0 0 0-1.5-.13c-.49 0-.77-.09-.77-.41s.32-.41 1-.41c2.13 0 5 .14 6.2.14s4.39-.14 6.15-.14c.64 0 .95.1.95.41s-.27.41-.81.41a13.67 13.67 0 0 0-1.77.13c-1.22.23-1.58 1-1.67 2.58s-.09 2.72-.09 9.59zM477 99.59l-6.75.18c-2.62.09-3.7.32-4.38 1.31a5.19 5.19 0 0 0-.77 1.58c-.09.37-.23.55-.5.55s-.41-.23-.41-.73c0-.72.86-4.84.95-5.2.14-.59.27-.86.54-.86a10.86 10.86 0 0 0 2 .54c1.31.14 3 .23 4.53.23H490a20.21 20.21 0 0 0 3.12-.23 11.81 11.81 0 0 1 1.22-.22c.32 0 .36.27.36 1 0 1-.13 4.07-.13 5.25-.05.45-.14.72-.41.72s-.45-.23-.5-.91v-.49c-.09-1.18-1.31-2.45-5.34-2.54l-5.7-.13v18.55c0 4.16 0 7.73.23 9.68.13 1.27.4 2.26 1.76 2.44a19.13 19.13 0 0 0 2.31.18c.5 0 .72.14.72.36s-.36.46-.86.46c-3 0-5.83-.14-7.1-.14-1 0-3.89.14-5.7.14-.59 0-.91-.14-.91-.46s.18-.36.73-.36a7.44 7.44 0 0 0 1.63-.18c.9-.18 1.17-1.17 1.31-2.49.23-1.9.23-5.47.23-9.63zm47 11.85c.14 0 .27-.09.27-.31v-.95c0-6.88 0-8.15-.09-9.6s-.45-2.26-1.94-2.57a8.54 8.54 0 0 0-1.77-.14c-.49 0-.76-.09-.76-.41s.31-.41.94-.41c2.45 0 5.3.14 6.52.14s3.94-.14 5.7-.14c.63 0 1 .1 1 .41s-.27.41-.82.41a7.31 7.31 0 0 0-1.31.14c-1.22.22-1.58 1-1.67 2.57s-.09 2.72-.09 9.6v8c0 4.16 0 7.73.23 9.68.13 1.26.4 2.26 1.76 2.44a19.13 19.13 0 0 0 2.31.18c.5 0 .72.14.72.36s-.36.46-.9.46c-2.94 0-5.8-.14-7.06-.14-1 0-3.89.14-5.66.14-.63 0-1-.14-1-.46s.18-.36.73-.36a7.27 7.27 0 0 0 1.62-.18c.91-.18 1.14-1.18 1.32-2.49.22-1.9.22-5.47.22-9.63v-4a.26.26 0 0 0-.27-.28h-17.27a.24.24 0 0 0-.27.28v4c0 4.16 0 7.73.22 9.68.14 1.26.41 2.26 1.77 2.44a19.13 19.13 0 0 0 2.31.18c.49 0 .72.14.72.36s-.36.46-.91.46c-2.93 0-5.79-.14-7.05-.14-1 0-3.89.14-5.7.14-.59 0-.9-.14-.9-.46s.17-.36.72-.36a7.52 7.52 0 0 0 1.63-.18c.9-.18 1.13-1.18 1.31-2.49.23-1.9.23-5.47.23-9.63v-8c0-6.88 0-8.15-.1-9.6s-.45-2.26-1.94-2.57a8.54 8.54 0 0 0-1.77-.14c-.49 0-.77-.09-.77-.41s.32-.41.95-.41c2.45 0 5.3.14 6.52.14s3.94-.14 5.7-.14c.63 0 1 .1 1 .41s-.27.41-.81.41a7.15 7.15 0 0 0-1.32.14c-1.22.22-1.58 1-1.67 2.57s-.09 2.72-.09 9.6v.95a.27.27 0 0 0 .27.31zm28.15 19.21c-.85-.37-1-.64-1-1.8 0-2.9.21-6.07.26-6.91s.21-1.37.64-1.37.52.47.52.9a10.94 10.94 0 0 0 .48 2.69c1.16 3.9 4.27 5.33 7.54 5.33 4.75 0 7.07-3.22 7.07-6 0-2.59-.79-5-5.17-8.44l-2.43-1.9c-5.8-4.54-7.81-8.23-7.81-12.51 0-5.8 4.86-10 12.2-10a25.46 25.46 0 0 1 7 .9c.48.11.74.26.74.63 0 .69-.21 2.22-.21 6.33 0 1.16-.16 1.59-.58 1.59s-.53-.32-.53-.95a6.39 6.39 0 0 0-1.37-3.49 6.68 6.68 0 0 0-5.75-2.58c-3.91 0-6.28 2.27-6.28 5.43 0 2.43 1.21 4.28 5.59 7.6l1.48 1.11c6.38 4.8 8.65 8.44 8.65 13.45a10.62 10.62 0 0 1-5 9.18 15.22 15.22 0 0 1-8.39 2.17 18.31 18.31 0 0 1-7.7-1.37"/><path class="cls-1" d="M587 119.54a9.58 9.58 0 0 0-1-4.75c-.32-.73-6.38-10.68-8-13a11 11 0 0 0-3.13-3.3 4.5 4.5 0 0 0-1.89-.59c-.37 0-.68-.09-.68-.41s.31-.4.86-.4c.81 0 4.2.13 5.7.13 1 0 2.8-.13 4.84-.13.45 0 .67.13.67.4s-.31.32-1 .5a.81.81 0 0 0-.63.81 4 4 0 0 0 .54 1.54c.63 1.36 7 12.26 7.69 13.53.45-1.09 6.15-11 6.79-12.44a6 6 0 0 0 .63-2.35 1.09 1.09 0 0 0-1-1.14c-.41-.09-.82-.18-.82-.45s.23-.4.78-.4c1.49 0 2.94.13 4.25.13 1 0 4-.13 4.84-.13.5 0 .81.09.81.36s-.36.45-.86.45a4.92 4.92 0 0 0-2 .54 6.69 6.69 0 0 0-2.44 2.22 144.47 144.47 0 0 0-8.62 14.34 10.84 10.84 0 0 0-.68 4.53v3.71c0 .72 0 2.62.13 4.52.1 1.32.5 2.31 1.86 2.49a19.11 19.11 0 0 0 2.26.18c.5 0 .73.14.73.36s-.37.46-1 .46c-2.85 0-5.69-.14-6.92-.14s-4 .14-5.65.14c-.63 0-1-.09-1-.46s.23-.36.73-.36a7.32 7.32 0 0 0 1.58-.18c.91-.18 1.31-1.17 1.4-2.49.14-1.9.14-3.8.14-4.52zm20.44 11.17c-.72-.31-.86-.54-.86-1.53 0-2.49.18-5.21.23-5.93s.18-1.18.54-1.18.45.41.45.77a9.4 9.4 0 0 0 .41 2.31c1 3.35 3.66 4.57 6.47 4.57 4.07 0 6.06-2.76 6.06-5.16 0-2.22-.68-4.3-4.43-7.24l-2.08-1.63c-5-3.89-6.7-7-6.7-10.72 0-5 4.16-8.55 10.45-8.55a21.81 21.81 0 0 1 6 .77c.4.09.63.23.63.54 0 .59-.18 1.9-.18 5.43 0 1-.13 1.36-.5 1.36s-.45-.27-.45-.82a5.51 5.51 0 0 0-1.18-3 5.73 5.73 0 0 0-4.93-2.22c-3.35 0-5.38 2-5.38 4.66 0 2.08 1 3.67 4.79 6.52l1.27.95c5.47 4.11 7.42 7.23 7.42 11.53a9.14 9.14 0 0 1-4.25 7.88 13.15 13.15 0 0 1-7.2 1.85 15.64 15.64 0 0 1-6.6-1.18M640 99.59l-6.74.18c-2.62.09-3.71.32-4.39 1.31a5.45 5.45 0 0 0-.77 1.58c-.09.37-.22.55-.5.55s-.4-.23-.4-.73c0-.72.86-4.84.95-5.2.13-.59.27-.86.54-.86a10.34 10.34 0 0 0 1.95.54c1.31.14 3 .23 4.52.23h17.91a20.36 20.36 0 0 0 3.13-.23 11.81 11.81 0 0 1 1.22-.22c.31 0 .36.27.36 1 0 1-.14 4.07-.14 5.25 0 .45-.13.72-.4.72s-.46-.23-.5-.91v-.49c-.09-1.18-1.31-2.45-5.33-2.54l-5.71-.13v18.55c0 4.16 0 7.73.23 9.68.14 1.27.41 2.26 1.77 2.44a19 19 0 0 0 2.3.18c.5 0 .73.14.73.36s-.36.46-.86.46c-3 0-5.84-.14-7.11-.14-1 0-3.89.14-5.7.14-.58 0-.9-.14-.9-.46s.18-.36.72-.36a7.44 7.44 0 0 0 1.63-.18c.91-.18 1.18-1.17 1.31-2.49.23-1.9.23-5.47.23-9.63zm23.85 10.58c0-6.87 0-8.14-.09-9.59s-.46-2.26-2-2.57a8.5 8.5 0 0 0-1.76-.14c-.5 0-.77-.09-.77-.41s.32-.4 1-.4h3.67c1.13 0 2.21.09 2.85.09h11.31a18 18 0 0 0 1.95-.28 4.46 4.46 0 0 1 .72-.18c.22 0 .27.18.27.41a27.61 27.61 0 0 0-.36 2.94c0 .45-.14 2.44-.23 3 0 .22-.13.49-.45.49s-.41-.22-.41-.63a4.77 4.77 0 0 0-.27-1.63c-.31-.81-.77-1.35-3-1.63-.77-.09-5.52-.18-6.43-.18-.22 0-.31.14-.31.46v11.44c0 .32 0 .5.31.5 1 0 6.2 0 7.24-.09a3.19 3.19 0 0 0 2.18-.68c.31-.36.49-.59.72-.59s.32.09.32.36-.19 1-.37 3.3c0 .91-.18 2.72-.18 3s0 .86-.4.86a.36.36 0 0 1-.41-.41 13.92 13.92 0 0 0-.18-1.63c-.23-.9-.86-1.58-2.54-1.76-.86-.1-5.33-.14-6.42-.14-.23 0-.27.18-.27.45v10.58c.09 3.12.81 3.8 5.43 3.8a11.55 11.55 0 0 0 4.25-.54c1.18-.55 1.72-1.5 2-3.35.09-.5.18-.68.49-.68s.37.36.37.81a36.44 36.44 0 0 1-.59 5c-.32 1.17-.73 1.17-2.45 1.17-3.39 0-5.88-.09-7.82-.13s-3.35-.14-4.71-.14h-2.58c-1.09 0-2.21.09-3.12.09-.59 0-.9-.14-.9-.46s.18-.36.72-.36a7.44 7.44 0 0 0 1.63-.18c.91-.18 1.13-1.17 1.31-2.49.23-1.9.23-5.47.23-9.63zm28-12.57c.13-.77.41-1.18.77-1.18s.63.23 1.22 1.4L706.19 123l12.3-25.47c.37-.73.59-1.09 1-1.09s.68.46.82 1.4l4.11 27.69c.41 2.85.86 4.16 2.22 4.57a8.94 8.94 0 0 0 2.8.45c.41 0 .73.05.73.32s-.55.5-1.18.5c-1.13 0-7.37-.09-9.18-.23-1-.09-1.32-.23-1.32-.5s.19-.36.5-.49.41-.68.23-1.95l-2.71-19.68h-.19l-9.86 20.18c-1 2.13-1.27 2.53-1.67 2.53s-.86-.9-1.59-2.26c-1.08-2.08-4.66-9-5.2-10.27-.41-1-3.12-6.29-4.7-9.68h-.18l-2.36 17.64a18 18 0 0 0-.13 2.13c0 .86.59 1.27 1.35 1.45a8.77 8.77 0 0 0 1.9.22c.37 0 .68.09.68.32 0 .41-.4.5-1.08.5-1.9 0-3.94-.14-4.75-.14s-3 .14-4.48.14c-.45 0-.82-.09-.82-.5 0-.23.28-.32.73-.32a6 6 0 0 0 1.35-.13c1.27-.27 1.63-2 1.86-3.58zM67.26 160a2.88 2.88 0 0 1 .61-.89 2.89 2.89 0 0 1 3.11-.59 2.87 2.87 0 0 1 .9.59 3.06 3.06 0 0 1 .61.89 2.8 2.8 0 0 1 .22 1.12 2.85 2.85 0 0 1-.22 1.13 3.11 3.11 0 0 1-.61.9 2.87 2.87 0 0 1-.9.59 2.83 2.83 0 0 1-3.72-1.49 2.85 2.85 0 0 1-.23-1.13 2.8 2.8 0 0 1 .23-1.12m.46 2.08a2.49 2.49 0 0 0 .5.77 2.25 2.25 0 0 0 1.66.69 2.27 2.27 0 0 0 .91-.18 2.44 2.44 0 0 0 .74-.51 2.47 2.47 0 0 0 .49-.77 2.56 2.56 0 0 0 .18-1 2.47 2.47 0 0 0-.18-1 2.42 2.42 0 0 0-.49-.76 2.25 2.25 0 0 0-.74-.5 2.12 2.12 0 0 0-.91-.19 2.36 2.36 0 0 0-1.66.69 2.39 2.39 0 0 0-.68 1.71 2.56 2.56 0 0 0 .18 1m2.33-2.61a1.34 1.34 0 0 1 .88.24.86.86 0 0 1 .28.71.77.77 0 0 1-.21.63 1.08 1.08 0 0 1-.62.25l1 1.46h-.56l-.89-1.42h-.55v1.42h-.51v-3.31zm-.22 1.47h.33a1.07 1.07 0 0 0 .27-.06.39.39 0 0 0 .19-.17.51.51 0 0 0 .08-.3.45.45 0 0 0-.07-.27.57.57 0 0 0-.16-.15.84.84 0 0 0-.24-.07h-.94v1zM10.09 34.44l2.2 31.44C15.67 62 32.67 42.33 42.76 23.72 32.67 25.09 19.85 28 10.09 34.44M53.17 130c-11.1 16.82 8.46 33 8.46 33-2.85-11.61 13.64-30.14 13.64-30.14 8.22-15.48-5-30.51-5-30.51C64 116.81 53.17 130 53.17 130m16.55-81.78c-2.43 10-10.41 21.13-10.41 21.13L35 104.89c-12.19 23 6.24 34.59 6.24 34.59.13-9.42 28.87-45.42 28.87-45.42 14.32-26.59-.36-45.84-.36-45.84"/><path class="cls-1" d="M117.7 21.14C98.88 8.7 69 7.8 60.28 7.82A38.37 38.37 0 0 0 55.06 0a27.57 27.57 0 0 1-.66 8C17.7 9.6 2.27 21.44 2.27 21.44l4.45 6.61c14-9.11 35.4-11.47 45.33-12.07-8.29 22.61-30.49 51.11-30.49 51.11-18.25 30.48 1.49 51.22 1.49 51.22 2.13-18.87 29.75-51 29.75-51 9.68-14.08 12.86-26.54 12.91-36.79L106 88.15l3.7-54.07c-2.55-1.84-15.86-10.34-44.56-11.41a48 48 0 0 0-1.59-6.86c34.9.78 49.35 11.77 49.35 11.77z"/><path class="cls-1" d="M47 33.33a2.79 2.79 0 0 1 .62-.89 2.83 2.83 0 0 1 .91-.6 2.84 2.84 0 0 1 3.09.6 2.77 2.77 0 0 1 .61.89 2.72 2.72 0 0 1 .23 1.11 2.82 2.82 0 0 1-.23 1.13 2.92 2.92 0 0 1-.61.9 2.91 2.91 0 0 1-3.09.59 2.8 2.8 0 0 1-.91-.59 3 3 0 0 1-.62-.9 2.81 2.81 0 0 1-.22-1.13 2.72 2.72 0 0 1 .22-1.11m.47 2.07a2.36 2.36 0 0 0 .49.77 2.13 2.13 0 0 0 .74.51 2.34 2.34 0 0 0 .93.19 2.32 2.32 0 0 0 .91-.19 2.23 2.23 0 0 0 .74-.51 2.53 2.53 0 0 0 .49-.77 2.77 2.77 0 0 0 0-1.91 2.61 2.61 0 0 0-.49-.76 2.36 2.36 0 0 0-.74-.5 2.32 2.32 0 0 0-.91-.19 2.34 2.34 0 0 0-.93.19 2.25 2.25 0 0 0-.74.5 2.42 2.42 0 0 0-.49.76 2.62 2.62 0 0 0 0 1.91m2.33-2.6a1.39 1.39 0 0 1 .87.23.88.88 0 0 1 .28.71.83.83 0 0 1-.24.66 1.1 1.1 0 0 1-.62.24L51 36.1h-.55l-.9-1.42H49v1.42h-.51v-3.3zm-.23 1.47h.33a.67.67 0 0 0 .28-.06.42.42 0 0 0 .19-.16.55.55 0 0 0 .07-.31.48.48 0 0 0-.06-.26.4.4 0 0 0-.17-.15.85.85 0 0 0-.24-.08H49v1.05z"/></svg>